
<svg xmlns="http://www.w3.org/2000/svg" viewBox="0 0 232.9 73.81"><defs><style>.cls-1,.cls-4{fill:#005680;}.cls-2,.cls-7{fill:#f2ba01;}.cls-2,.cls-4,.cls-5{fill-rule:evenodd;}.cls-3,.cls-5,.cls-6{fill:#ed7203;}.cls-5,.cls-6{stroke:#ed7203;stroke-linecap:round;stroke-linejoin:round;stroke-width:0.13px;}</style></defs><g id="Capa_2" data-name="Capa 2"><g id="PAG_1" data-name="PAG 1"><g id="LOGOS"><path class="cls-1" d="M57.51,15.32H50.45v.56h.7a2.32,2.32,0,0,1,1.6.49c.38.32.57,1.15.57,2.48V30.6L40.91,15.32H35.4v0H24.91v1h1.31a3.91,3.91,0,0,1,2.73.88c.65.59,1,2.05,1,4.37v14.2c0,4-.39,6.78-1.16,8.31a8.13,8.13,0,0,1-3.86,3.62A13,13,0,0,1,19.11,49a9.64,9.64,0,0,1-5.31-1.34,7.08,7.08,0,0,1-2.92-3.91A23.05,23.05,0,0,1,10,36.86V21.58c0-2.27.34-3.71,1-4.33a3.93,3.93,0,0,1,2.7-.92h1.34v-1H0v1H1.34c1.56,0,2.58.43,3.05,1.28a8.57,8.57,0,0,1,.71,4V35.27a30.63,30.63,0,0,0,1,9.21,9,9,0,0,0,4.26,4.88,16.61,16.61,0,0,0,8.42,1.89,15.25,15.25,0,0,0,8.54-2.12,9.25,9.25,0,0,0,4-5.39A30.32,30.32,0,0,0,32.25,36V21.77a7.58,7.58,0,0,1,.86-4.18A3.2,3.2,0,0,1,36,16.33h1.31v-.1l.22.11A6.83,6.83,0,0,1,39.4,18V32.16c0,1.34-.2,2.17-.62,2.49a2.45,2.45,0,0,1-1.55.48h-.71v.56h7.07v-.56h-.72a2.35,2.35,0,0,1-1.6-.48c-.37-.33-.55-1.15-.55-2.49V19.62L53.9,35.78l.74-2.41V18.85a4.48,4.48,0,0,1,.43-2.34,2,2,0,0,1,1.73-.63h.71Z"/><path class="cls-2" d="M67,15.21H60.23L54.64,33.37l-.74,2.41-.07.24H59l1.25-4.1h5.55L67,36h6.5ZM61.32,27.38l1.67-6,1.69,6Z"/><path class="cls-2" d="M81.83,15.21h-8V36h8.41a9.58,9.58,0,0,0,7.24-2.92,10.53,10.53,0,0,0,2.79-7.59,10.89,10.89,0,0,0-2.6-7.19Q87.06,15.22,81.83,15.21Zm-1.66,16V19.94h1.66a3.06,3.06,0,0,1,2.79,1.64,7.67,7.67,0,0,1,1,3.92,7.16,7.16,0,0,1-1.08,4.19,3.2,3.2,0,0,1-2.67,1.54Z"/><path class="cls-3" d="M32.67,8.17a2.71,2.71,0,1,0,2.7,2.71A2.7,2.7,0,0,0,32.67,8.17Z"/><path class="cls-3" d="M27,2.5a2.71,2.71,0,1,0,2.7,2.71A2.7,2.7,0,0,0,27,2.5Z"/><path class="cls-3" d="M18.45,0a2.71,2.71,0,1,0,2.7,2.71A2.7,2.7,0,0,0,18.45,0Z"/><path class="cls-3" d="M9.93,2.5a2.71,2.71,0,1,0,2.7,2.71A2.7,2.7,0,0,0,9.93,2.5Z"/><path class="cls-3" d="M4.27,8.17A2.71,2.71,0,1,0,7,10.88,2.7,2.7,0,0,0,4.27,8.17Z"/><path class="cls-3" d="M87.21,37.94a2.71,2.71,0,1,0,2.7,2.71A2.7,2.7,0,0,0,87.21,37.94Z"/><path class="cls-3" d="M81.53,43.6a2.72,2.72,0,1,0,2.7,2.72A2.71,2.71,0,0,0,81.53,43.6Z"/><path class="cls-3" d="M73,46.11a2.71,2.71,0,1,0,2.7,2.71A2.7,2.7,0,0,0,73,46.11Z"/><path class="cls-3" d="M64.47,43.6a2.72,2.72,0,1,0,2.69,2.72A2.71,2.71,0,0,0,64.47,43.6Z"/><path class="cls-3" d="M58.81,37.94a2.71,2.71,0,1,0,2.7,2.71A2.7,2.7,0,0,0,58.81,37.94Z"/><path class="cls-1" d="M5.78,54.63H5v4.72a2,2,0,0,1-.43,1.42,1.67,1.67,0,0,1-1.26.44,2.12,2.12,0,0,1-.83-.16,1.19,1.19,0,0,1-.59-.51,2.57,2.57,0,0,1-.2-1.19V54.63H.82v4.72a2.87,2.87,0,0,0,.6,2A2.42,2.42,0,0,0,3.27,62a2.64,2.64,0,0,0,1.82-.62,2.62,2.62,0,0,0,.69-2Z"/><path class="cls-1" d="M9.62,56.37A1.9,1.9,0,0,0,7.94,57.5v-1H7.17v5.35H8V58.93a2,2,0,0,1,.42-1.34,1.36,1.36,0,0,1,1.07-.51,1.12,1.12,0,0,1,.78.3,1.41,1.41,0,0,1,.32,1v3.44h.77V58.77a4.44,4.44,0,0,0-.15-1.4,1.69,1.69,0,0,0-.57-.7A1.75,1.75,0,0,0,9.62,56.37Z"/><path class="cls-4" d="M13.69,54.63H12.8v.93h.89Zm0,1.88h-.83v5.35h.83Z"/><polygon class="cls-1" points="19.03 56.51 18.3 56.51 16.83 60.86 15.35 56.51 14.43 56.51 16.34 61.86 17.19 61.86 19.03 56.51"/><path class="cls-4" d="M21.69,56.37a2.28,2.28,0,0,0-1.76.78,3.4,3.4,0,0,0,0,4.09,2.27,2.27,0,0,0,1.77.77,2.37,2.37,0,0,0,1.44-.45,2.16,2.16,0,0,0,.82-1.14l-.77-.16a1.45,1.45,0,0,1-1.43,1.06,1.59,1.59,0,0,1-1.07-.43,2,2,0,0,1-.51-1.63H24a3.28,3.28,0,0,0-.65-2.17A2.12,2.12,0,0,0,21.69,56.37Zm-1.5,2.27a1.87,1.87,0,0,1,.48-1.2,1.42,1.42,0,0,1,1-.44,1.22,1.22,0,0,1,.78.25,1.4,1.4,0,0,1,.47.59,2.42,2.42,0,0,1,.15.8Z"/><path class="cls-1" d="M27.38,56.35a1.4,1.4,0,0,0-.8.27,2.63,2.63,0,0,0-.77,1.14V56.51h-.73v5.35h.83V59a2.11,2.11,0,0,1,.49-1.35,1.45,1.45,0,0,1,1.14-.51h.16v-.8Z"/><path class="cls-1" d="M30,56.37a2.18,2.18,0,0,0-1.44.45A1.43,1.43,0,0,0,28,57.94a1.29,1.29,0,0,0,.39,1,2.07,2.07,0,0,0,1.05.5l1.13.21c.6.11.91.38.91.8a.73.73,0,0,1-.36.65,1.54,1.54,0,0,1-.88.24c-.93,0-1.49-.34-1.66-1l-.8.16A2.17,2.17,0,0,0,30.15,62a2.57,2.57,0,0,0,1.61-.46,1.42,1.42,0,0,0,.61-1.19c0-.85-.55-1.38-1.63-1.58l-1-.19c-.56-.1-.83-.35-.83-.74a.65.65,0,0,1,.33-.59,1.47,1.47,0,0,1,.82-.21,1.3,1.3,0,0,1,1.35.84l.76-.17A2,2,0,0,0,30,56.37Z"/><path class="cls-4" d="M34.2,54.63h-.89v.93h.89Zm0,1.88h-.83v5.35h.83Z"/><path class="cls-4" d="M39.81,54.63H39v2.61a1.9,1.9,0,0,0-3.15-.06,3.39,3.39,0,0,0-.6,2,3.18,3.18,0,0,0,.6,2,1.88,1.88,0,0,0,1.54.79,1.82,1.82,0,0,0,1.69-1.07v.92h.75Zm-2.3,6.69a1.13,1.13,0,0,1-1-.56,3,3,0,0,1-.37-1.64,2.54,2.54,0,0,1,.4-1.54,1.18,1.18,0,0,1,1-.55,1.38,1.38,0,0,1,1,.42A1.5,1.5,0,0,1,39,58.58v1.11a1.61,1.61,0,0,1-.45,1.14A1.32,1.32,0,0,1,37.51,61.32Z"/><path class="cls-4" d="M43.31,56.37c-1.38,0-2.17.49-2.36,1.47l.77.13q.21-1,1.47-1a1.8,1.8,0,0,1,.83.17.78.78,0,0,1,.41.45,2.94,2.94,0,0,1,.1.92l-.71,0a4,4,0,0,0-2.33.52,1.6,1.6,0,0,0-.68,1.34,1.56,1.56,0,0,0,.48,1.14,1.86,1.86,0,0,0,1.37.48,1.91,1.91,0,0,0,1.87-1.12,7.18,7.18,0,0,0,.1,1h.81a4.74,4.74,0,0,1-.11-1V58.55a2.47,2.47,0,0,0-.46-1.7A2.11,2.11,0,0,0,43.31,56.37Zm-.48,5a1.18,1.18,0,0,1-.84-.27.87.87,0,0,1-.3-.67,1,1,0,0,1,.55-.94,2.91,2.91,0,0,1,1.52-.32c.18,0,.43,0,.77,0,0,.13,0,.25,0,.35a1.85,1.85,0,0,1-.49,1.28A1.57,1.57,0,0,1,42.83,61.36Z"/><path class="cls-4" d="M51,54.63h-.83v2.61A1.9,1.9,0,0,0,47,57.18a3.39,3.39,0,0,0-.6,2,3.13,3.13,0,0,0,.61,2,1.86,1.86,0,0,0,1.53.79,1.82,1.82,0,0,0,1.69-1.07v.92H51Zm-2.3,6.69a1.14,1.14,0,0,1-1-.56,3,3,0,0,1-.37-1.64,2.54,2.54,0,0,1,.4-1.54,1.2,1.2,0,0,1,1-.55,1.39,1.39,0,0,1,1,.42,1.5,1.5,0,0,1,.43,1.13v1.11a1.61,1.61,0,0,1-.45,1.14A1.32,1.32,0,0,1,48.67,61.32Z"/><path class="cls-1" d="M60.33,54.63h-.72V59.5c0,.15,0,.32,0,.52v.5l-3.48-5.89H55v7.23h.73V56.49c0-.12,0-.28,0-.45v-.48l3.72,6.3h.88Z"/><path class="cls-4" d="M63.9,56.37c-1.38,0-2.17.49-2.35,1.47l.76.13c.14-.64.62-1,1.47-1a1.8,1.8,0,0,1,.83.17.83.83,0,0,1,.42.45,3.37,3.37,0,0,1,.09.92l-.71,0a4,4,0,0,0-2.33.52,1.62,1.62,0,0,0-.68,1.34,1.56,1.56,0,0,0,.48,1.14,1.86,1.86,0,0,0,1.37.48,1.92,1.92,0,0,0,1.87-1.12c0,.48.07.8.1,1H66a4.74,4.74,0,0,1-.11-1V58.55a2.47,2.47,0,0,0-.46-1.7A2.09,2.09,0,0,0,63.9,56.37Zm-.47,5a1.2,1.2,0,0,1-.85-.27.87.87,0,0,1-.3-.67,1,1,0,0,1,.55-.94,2.94,2.94,0,0,1,1.52-.32c.18,0,.43,0,.77,0,0,.13,0,.25,0,.35a1.89,1.89,0,0,1-.48,1.28A1.6,1.6,0,0,1,63.43,61.36Z"/><path class="cls-1" d="M69.24,56.37a1.94,1.94,0,0,0-1.65.8,3.26,3.26,0,0,0-.61,2,3.32,3.32,0,0,0,.58,2,2.11,2.11,0,0,0,3,.32,2.46,2.46,0,0,0,.7-1.39L70.55,60c-.19.89-.62,1.34-1.31,1.34a1.14,1.14,0,0,1-1-.57,2.88,2.88,0,0,1-.37-1.59,2.78,2.78,0,0,1,.37-1.52,1.17,1.17,0,0,1,1-.59c.71,0,1.13.45,1.28,1.33l.74-.15a2.27,2.27,0,0,0-.65-1.34A1.88,1.88,0,0,0,69.24,56.37Z"/><path class="cls-4" d="M73.09,54.63h-.88v.93h.88Zm0,1.88h-.83v5.35h.83Z"/><path class="cls-4" d="M76.53,56.37a2.23,2.23,0,0,0-1.72.76,2.92,2.92,0,0,0-.69,2,3.26,3.26,0,0,0,.61,2,2,2,0,0,0,1.72.82,2.24,2.24,0,0,0,1.77-.8,3,3,0,0,0,.68-2,3.13,3.13,0,0,0-.63-2A2.07,2.07,0,0,0,76.53,56.37Zm0,5a1.36,1.36,0,0,1-1.06-.5A2.61,2.61,0,0,1,75,59.16a2.47,2.47,0,0,1,.42-1.6,1.33,1.33,0,0,1,1-.51,1.38,1.38,0,0,1,1,.5A2.38,2.38,0,0,1,78,59.16a2.55,2.55,0,0,1-.43,1.64A1.35,1.35,0,0,1,76.51,61.32Z"/><path class="cls-1" d="M82.41,56.37a1.9,1.9,0,0,0-1.67,1.13v-1H80v5.35h.83V58.93a2,2,0,0,1,.43-1.34,1.34,1.34,0,0,1,1.07-.51,1.12,1.12,0,0,1,.78.3,1.41,1.41,0,0,1,.31,1v3.44h.78V58.77a4.44,4.44,0,0,0-.15-1.4,1.72,1.72,0,0,0-.58-.7A1.69,1.69,0,0,0,82.41,56.37Z"/><path class="cls-4" d="M87.67,56.37c-1.39,0-2.17.49-2.36,1.47l.77.13c.13-.64.63-1,1.46-1a1.81,1.81,0,0,1,.84.17.81.81,0,0,1,.41.45,2.94,2.94,0,0,1,.1.92l-.71,0a3.93,3.93,0,0,0-2.33.52,1.64,1.64,0,0,0-.21,2.48A1.88,1.88,0,0,0,87,62a1.92,1.92,0,0,0,1.87-1.12c0,.48.06.8.09,1h.82a4.74,4.74,0,0,1-.11-1V58.55a2.52,2.52,0,0,0-.46-1.7A2.11,2.11,0,0,0,87.67,56.37Zm-.48,5a1.22,1.22,0,0,1-.85-.27.9.9,0,0,1-.29-.67,1,1,0,0,1,.54-.94,3,3,0,0,1,1.53-.32c.17,0,.43,0,.77,0,0,.13,0,.25,0,.35a1.84,1.84,0,0,1-.48,1.28A1.57,1.57,0,0,1,87.19,61.36Z"/><rect class="cls-1" x="91.16" y="54.63" width="0.83" height="7.23"/><path class="cls-5" d="M3.42,64.61h-1L.06,71.83H.82l.64-2.11H4.13l.73,2.11h.92ZM1.71,69l1.12-3.47L3.94,69Z"/><path class="cls-5" d="M7.24,64.61H6.41v7.22h.4L7.1,71a1.83,1.83,0,0,0,1.67,1,1.88,1.88,0,0,0,1.58-.81,3.22,3.22,0,0,0,.61-2,3.18,3.18,0,0,0-.61-2.11,2,2,0,0,0-1.54-.72,1.73,1.73,0,0,0-1.57,1ZM8.68,71.3a1.44,1.44,0,0,1-.94-.37,1.63,1.63,0,0,1-.5-1.19V68.53a1.75,1.75,0,0,1,.49-1.08A1.28,1.28,0,0,1,8.68,67a1.17,1.17,0,0,1,1,.58,3.05,3.05,0,0,1,.37,1.63,2.58,2.58,0,0,1-.39,1.51A1.19,1.19,0,0,1,8.68,71.3Z"/><path class="cls-5" d="M12.91,64.61H12v.92h.89Zm0,1.87h-.83v5.35h.83Z"/><path class="cls-5" d="M16.43,66.34a2.24,2.24,0,0,0-1.76.79,3.38,3.38,0,0,0,0,4.08,2.25,2.25,0,0,0,1.77.77,2.37,2.37,0,0,0,1.44-.45,2.18,2.18,0,0,0,.82-1.13l-.77-.16a1.45,1.45,0,0,1-1.43,1.05,1.63,1.63,0,0,1-1.07-.42,2.09,2.09,0,0,1-.51-1.64h3.87a3.28,3.28,0,0,0-.65-2.17A2.12,2.12,0,0,0,16.43,66.34Zm-1.5,2.27a1.77,1.77,0,0,1,.48-1.19A1.39,1.39,0,0,1,16.46,67a1.23,1.23,0,0,1,.78.25,1.4,1.4,0,0,1,.47.59,2.2,2.2,0,0,1,.14.8Z"/><path class="cls-6" d="M22.15,66.33a1.35,1.35,0,0,0-.79.26,2.63,2.63,0,0,0-.78,1.14V66.48h-.72v5.35h.82V69a2.09,2.09,0,0,1,.49-1.35,1.43,1.43,0,0,1,1.13-.52h.17v-.79A2,2,0,0,0,22.15,66.33Z"/><path class="cls-6" d="M24.54,65.07l-.77.07,0,1.34h-.94v.65h.94v3.23c0,1.08.52,1.62,1.55,1.62a5.74,5.74,0,0,0,.76-.06v-.65a5.42,5.42,0,0,1-.65,0,.74.74,0,0,1-.85-.83V67.13h1.19v-.65H24.54Z"/><path class="cls-5" d="M28.82,66.34c-1.38,0-2.16.49-2.35,1.47l.76.14c.14-.65.63-1,1.47-1a1.77,1.77,0,0,1,.83.17.87.87,0,0,1,.42.45,3.29,3.29,0,0,1,.1.92l-.71,0A3.93,3.93,0,0,0,27,69a1.62,1.62,0,0,0-.69,1.34,1.56,1.56,0,0,0,.48,1.14,1.87,1.87,0,0,0,1.38.48,1.93,1.93,0,0,0,1.87-1.11q0,.7.09,1H31a4.2,4.2,0,0,1-.11-1V68.52a2.52,2.52,0,0,0-.46-1.7A2.12,2.12,0,0,0,28.82,66.34Zm-.47,5a1.22,1.22,0,0,1-.85-.28.88.88,0,0,1-.29-.66,1,1,0,0,1,.54-1,2.94,2.94,0,0,1,1.52-.32l.78,0c0,.13,0,.25,0,.35a1.87,1.87,0,0,1-.48,1.28A1.58,1.58,0,0,1,28.35,71.34Z"/><path class="cls-6" d="M39.13,66.48h-.7L37,70.5l-1.42-4H34.7l1.85,5.24A2.53,2.53,0,0,1,36,72.83a1,1,0,0,1-.66.23A2.51,2.51,0,0,1,34.8,73v.65a2.4,2.4,0,0,0,.71.12c.68,0,1.17-.44,1.48-1.29Z"/><path class="cls-5" d="M45.53,66.34c-1.38,0-2.17.49-2.35,1.47l.76.14c.14-.65.63-1,1.47-1a1.8,1.8,0,0,1,.83.17.81.81,0,0,1,.41.45,2.94,2.94,0,0,1,.1.92l-.7,0a4,4,0,0,0-2.34.52A1.64,1.64,0,0,0,43,70.36a1.56,1.56,0,0,0,.48,1.14,1.87,1.87,0,0,0,1.38.48,1.91,1.91,0,0,0,1.86-1.11,7.17,7.17,0,0,0,.1,1h.81a4.77,4.77,0,0,1-.1-1V68.52a2.47,2.47,0,0,0-.47-1.7A2.11,2.11,0,0,0,45.53,66.34Zm-.48,5a1.18,1.18,0,0,1-.84-.28.84.84,0,0,1-.29-.66,1,1,0,0,1,.54-1A2.94,2.94,0,0,1,46,69.13l.77,0c0,.13,0,.25,0,.35a1.87,1.87,0,0,1-.48,1.28A1.62,1.62,0,0,1,45.05,71.34Z"/><path class="cls-5" d="M54.81,64.61H52.39v7.22H55.1a2.56,2.56,0,0,0,2.1-1A4.05,4.05,0,0,0,58,68.2a3.91,3.91,0,0,0-.85-2.55A2.85,2.85,0,0,0,54.81,64.61ZM53.3,71.06v-5.7h1.46a2,2,0,0,1,1.79.86,3.34,3.34,0,0,1,.57,1.92,3.48,3.48,0,0,1-.6,2.12,2.05,2.05,0,0,1-1.76.8Z"/><path class="cls-5" d="M60,64.61h-.89v.92H60Zm0,1.87h-.83v5.35H60Z"/><path class="cls-6" d="M63,66.34a2.13,2.13,0,0,0-1.43.45A1.42,1.42,0,0,0,61,67.92a1.25,1.25,0,0,0,.4,1,2,2,0,0,0,1,.5l1.13.22c.6.11.91.37.91.79a.75.75,0,0,1-.36.66,1.61,1.61,0,0,1-.87.23c-.94,0-1.5-.34-1.67-1l-.79.16A2.14,2.14,0,0,0,63.15,72a2.57,2.57,0,0,0,1.61-.46,1.39,1.39,0,0,0,.61-1.19c0-.85-.54-1.38-1.63-1.58l-1-.19c-.55-.1-.83-.35-.83-.74a.67.67,0,0,1,.33-.59A1.57,1.57,0,0,1,63,67a1.31,1.31,0,0,1,1.35.83l.75-.16A2,2,0,0,0,63,66.34Z"/><path class="cls-6" d="M67.32,65.07l-.77.07,0,1.34h-1v.65h1v3.23c0,1.08.51,1.62,1.54,1.62a5.61,5.61,0,0,0,.76-.06v-.65a5.27,5.27,0,0,1-.64,0c-.57,0-.86-.27-.86-.83V67.13h1.19v-.65H67.32Z"/><path class="cls-5" d="M71.63,66.34c-1.38,0-2.17.49-2.35,1.47L70,68c.14-.65.63-1,1.47-1a1.8,1.8,0,0,1,.83.17.81.81,0,0,1,.41.45,2.94,2.94,0,0,1,.1.92l-.7,0a3.91,3.91,0,0,0-2.33.52,1.62,1.62,0,0,0-.69,1.34,1.56,1.56,0,0,0,.48,1.14A1.87,1.87,0,0,0,71,72a1.9,1.9,0,0,0,1.86-1.11,7.17,7.17,0,0,0,.1,1h.82a4.2,4.2,0,0,1-.11-1V68.52a2.47,2.47,0,0,0-.47-1.7A2.11,2.11,0,0,0,71.63,66.34Zm-.48,5a1.18,1.18,0,0,1-.84-.28A.84.84,0,0,1,70,70.4a1,1,0,0,1,.54-1,2.94,2.94,0,0,1,1.52-.32l.77,0c0,.13,0,.25,0,.35a1.87,1.87,0,0,1-.48,1.28A1.62,1.62,0,0,1,71.15,71.34Z"/><path class="cls-6" d="M77.63,66.34A1.93,1.93,0,0,0,76,67.47v-1h-.77v5.35H76V68.9a2,2,0,0,1,.43-1.34,1.34,1.34,0,0,1,1.06-.51,1.09,1.09,0,0,1,.78.3,1.41,1.41,0,0,1,.32,1v3.44h.78V68.74a4.09,4.09,0,0,0-.16-1.4,1.54,1.54,0,0,0-.57-.69A1.65,1.65,0,0,0,77.63,66.34Z"/><path class="cls-6" d="M82.76,66.34a2,2,0,0,0-1.66.8,3.26,3.26,0,0,0-.61,2,3.39,3.39,0,0,0,.57,2,2.12,2.12,0,0,0,3,.32,2.4,2.4,0,0,0,.7-1.39L84.05,70c-.18.9-.61,1.34-1.3,1.34a1.17,1.17,0,0,1-1-.57,3,3,0,0,1-.36-1.59,2.87,2.87,0,0,1,.36-1.52A1.18,1.18,0,0,1,82.78,67c.71,0,1.13.44,1.27,1.32l.75-.15a2.3,2.3,0,0,0-.65-1.34A1.89,1.89,0,0,0,82.76,66.34Z"/><path class="cls-5" d="M86.66,64.61h-.89v.92h.89Zm0,1.87H85.8v5.35h.83Z"/><path class="cls-5" d="M90.19,66.34c-1.39,0-2.17.49-2.36,1.47l.76.14c.14-.65.63-1,1.47-1a1.81,1.81,0,0,1,.84.17.81.81,0,0,1,.41.45,2.94,2.94,0,0,1,.1.92l-.71,0a3.93,3.93,0,0,0-2.33.52,1.62,1.62,0,0,0-.69,1.34,1.53,1.53,0,0,0,.49,1.14,1.84,1.84,0,0,0,1.37.48,1.93,1.93,0,0,0,1.87-1.11q0,.7.09,1h.82a4.74,4.74,0,0,1-.11-1V68.52a2.47,2.47,0,0,0-.46-1.7A2.11,2.11,0,0,0,90.19,66.34Zm-.48,5a1.22,1.22,0,0,1-.85-.28.88.88,0,0,1-.29-.66,1,1,0,0,1,.55-1,2.91,2.91,0,0,1,1.52-.32l.77,0c0,.13,0,.25,0,.35a1.87,1.87,0,0,1-.48,1.28A1.58,1.58,0,0,1,89.71,71.34Z"/><rect class="cls-7" x="194.6" y="60.43" width="38.3" height="0.91"/><rect class="cls-3" x="156.3" y="60.43" width="38.3" height="0.91"/><rect class="cls-1" x="118" y="60.43" width="38.3" height="0.91"/><path class="cls-1" d="M126.46,68.05c.85.32,1.69.74,1.69,1.94a1.79,1.79,0,0,1-2,1.72,2.74,2.74,0,0,1-2-.7l.37-.48a2.19,2.19,0,0,0,1.58.6c.23,0,1.37-.07,1.37-1.14,0-.9-.71-1.15-1.43-1.42s-1.68-.61-1.68-1.86a1.64,1.64,0,0,1,1.83-1.6,3,3,0,0,1,1.73.6l-.37.49a2.36,2.36,0,0,0-1.36-.51,1.07,1.07,0,0,0-1.2,1C125,67.61,125.74,67.77,126.46,68.05Z"/><path class="cls-1" d="M129.77,66.32a.41.41,0,1,1-.41-.41A.41.41,0,0,1,129.77,66.32Zm-.1,1.45v3.86h-.62V67.77Z"/><path class="cls-1" d="M133.27,70.61c0,.76-.7,1.1-1.39,1.1a1.87,1.87,0,0,1-1.33-.57l.34-.47a1.37,1.37,0,0,0,1,.47c.14,0,.79,0,.79-.53s-.19-.46-.83-.64c-.45-.13-1.18-.3-1.18-1.18A1.2,1.2,0,0,1,132,67.68a1.78,1.78,0,0,1,1.22.49l-.35.45a1.25,1.25,0,0,0-.87-.37c-.25,0-.72.12-.72.54s.3.48.74.61C132.62,69.57,133.27,69.73,133.27,70.61Z"/><path class="cls-1" d="M135.92,71.48a1,1,0,0,1-.65.23,1,1,0,0,1-1-1V68.32h-.36v-.55h.36V66.32h.6v1.45h.79v.55h-.79v2.35a.43.43,0,0,0,.41.47.46.46,0,0,0,.33-.12Z"/><path class="cls-1" d="M140,71.12a2.14,2.14,0,0,1-1.56.59,2,2,0,0,1-.07-4c1.1,0,1.76.86,1.74,2.14h-3a1.3,1.3,0,0,0,1.32,1.32,1.64,1.64,0,0,0,1.18-.45Zm-2.83-1.87h2.3a1.1,1.1,0,0,0-1.1-1A1.21,1.21,0,0,0,137.14,69.25Z"/><path class="cls-1" d="M146.14,71.63h-.6v-2.5a.76.76,0,0,0-.84-.86.85.85,0,0,0-.85.86v2.5h-.59v-2.5a.76.76,0,0,0-.84-.86.83.83,0,0,0-.83.86v2.5H141V67.77h.61v.39a1.32,1.32,0,0,1,1-.48,1.18,1.18,0,0,1,1,.56,1.55,1.55,0,0,1,1.24-.56,1.33,1.33,0,0,1,1.28,1.46Z"/><path class="cls-1" d="M150.29,71.63h-.6v-.44a1.6,1.6,0,0,1-1.29.52,1.29,1.29,0,0,1-.9-2.3,2.69,2.69,0,0,1,2.18-.23c-.06-.69-.31-.93-1-.93a2.41,2.41,0,0,0-1.18.31l-.25-.52a3.21,3.21,0,0,1,1.44-.36c1.37,0,1.57.94,1.57,1.84Zm-.6-1.89c-1.12-.23-1.58-.07-1.82.12a.7.7,0,0,0-.25.58.73.73,0,0,0,.85.7c.8,0,1.22-.4,1.22-1.09Z"/><path class="cls-1" d="M158.43,65.19v4.25a2.25,2.25,0,1,1-4.5,0V65.19h.62v4.25a1.63,1.63,0,1,0,3.26,0V65.19Z"/><path class="cls-1" d="M162.85,71.63h-.6v-2.4a.86.86,0,0,0-1-1,1,1,0,0,0-1,1v2.37h-.6V67.77h.6v.39a1.5,1.5,0,0,1,1.13-.48,1.43,1.43,0,0,1,1.39,1.58Z"/><path class="cls-1" d="M164.71,66.32a.41.41,0,1,1-.41-.41A.41.41,0,0,1,164.71,66.32Zm-.1,1.45v3.86H164V67.77Z"/><path class="cls-1" d="M169.16,67.77l-1.89,4.06-1.9-4.06H166l1.26,2.7,1.25-2.7Z"/><path class="cls-1" d="M173.21,71.12a2.14,2.14,0,0,1-1.56.59,2,2,0,0,1-.07-4c1.1,0,1.76.86,1.74,2.14h-3a1.3,1.3,0,0,0,1.32,1.32,1.66,1.66,0,0,0,1.18-.45Zm-2.83-1.87h2.3a1.1,1.1,0,0,0-1.1-1A1.21,1.21,0,0,0,170.38,69.25Z"/><path class="cls-1" d="M176.67,67.87l-.3.57a1,1,0,0,0-.63-.19.91.91,0,0,0-.92.92v2.46h-.6V67.77h.6v.47a1.31,1.31,0,0,1,1.08-.56A1.63,1.63,0,0,1,176.67,67.87Z"/><path class="cls-1" d="M179.91,70.61c0,.76-.7,1.1-1.39,1.1a1.86,1.86,0,0,1-1.33-.57l.34-.47a1.37,1.37,0,0,0,1,.47c.14,0,.78,0,.78-.53s-.18-.46-.82-.64c-.45-.13-1.18-.3-1.18-1.18a1.2,1.2,0,0,1,1.32-1.11,1.78,1.78,0,0,1,1.22.49l-.35.45a1.25,1.25,0,0,0-.87-.37c-.26,0-.72.12-.72.54s.3.48.74.61C179.26,69.57,179.91,69.73,179.91,70.61Z"/><path class="cls-1" d="M181.53,66.32a.41.41,0,1,1-.41-.41A.41.41,0,0,1,181.53,66.32Zm-.1,1.45v3.86h-.62V67.77Z"/><path class="cls-1" d="M184.33,71.48a1,1,0,0,1-.66.23,1,1,0,0,1-1-1V68.32h-.36v-.55h.36V66.32h.6v1.45h.79v.55h-.79v2.35a.43.43,0,0,0,.41.47A.46.46,0,0,0,184,71Z"/><path class="cls-1" d="M188.13,71.63h-.6v-.44a1.62,1.62,0,0,1-1.3.52,1.29,1.29,0,0,1-.89-2.3,2.66,2.66,0,0,1,2.17-.23c0-.69-.3-.93-1-.93a2.47,2.47,0,0,0-1.19.31l-.24-.52a3.21,3.21,0,0,1,1.44-.36c1.36,0,1.57.94,1.57,1.84Zm-.6-1.89c-1.12-.23-1.58-.07-1.82.12a.7.7,0,0,0-.25.58.72.72,0,0,0,.84.7c.81,0,1.23-.4,1.23-1.09Z"/><path class="cls-1" d="M191.72,67.87l-.3.57a.94.94,0,0,0-.63-.19.9.9,0,0,0-.91.92v2.46h-.6V67.77h.6v.47a1.28,1.28,0,0,1,1.07-.56A1.63,1.63,0,0,1,191.72,67.87Z"/><path class="cls-1" d="M193.23,66.32a.41.41,0,1,1-.41-.41A.41.41,0,0,1,193.23,66.32Zm-.1,1.45v3.86h-.62V67.77Z"/><path class="cls-1" d="M198.12,69.71a2,2,0,1,1-2-2A2,2,0,0,1,198.12,69.71Zm-2-1.46a1.45,1.45,0,1,0,1.42,1.46A1.42,1.42,0,0,0,196.08,68.25Z"/><path class="cls-1" d="M201.17,71.63,203.8,65l2.63,6.63h-.66l-.53-1.34h-2.9l-.53,1.34Zm1.4-1.91H205l-1.22-3.07Z"/><path class="cls-1" d="M207.36,65.19h.6v3.12a1.65,1.65,0,0,1,1.29-.63,1.89,1.89,0,0,1,1.9,2,1.91,1.91,0,0,1-1.92,2,1.64,1.64,0,0,1-1.27-.62v.54h-.6Zm1.89,6a1.45,1.45,0,1,0-1.31-1.44A1.31,1.31,0,0,0,209.25,71.14Z"/><path class="cls-1" d="M212.82,66.32a.41.41,0,1,1-.41-.41A.41.41,0,0,1,212.82,66.32Zm-.1,1.45v3.86h-.62V67.77Z"/><path class="cls-1" d="M217.13,71.12a2.14,2.14,0,0,1-1.56.59,2,2,0,0,1-.07-4c1.1,0,1.76.86,1.74,2.14h-3a1.3,1.3,0,0,0,1.32,1.32,1.68,1.68,0,0,0,1.19-.45Zm-2.83-1.87h2.3a1.1,1.1,0,0,0-1.1-1A1.21,1.21,0,0,0,214.3,69.25Z"/><path class="cls-1" d="M220.59,67.87l-.3.57a.94.94,0,0,0-.63-.19.9.9,0,0,0-.91.92v2.46h-.61V67.77h.61v.47a1.28,1.28,0,0,1,1.07-.56A1.63,1.63,0,0,1,220.59,67.87Z"/><path class="cls-1" d="M223.13,71.48a1,1,0,0,1-.66.23,1,1,0,0,1-1-1V68.32h-.36v-.55h.36V66.32h.6v1.45h.79v.55h-.79v2.35a.43.43,0,0,0,.41.47.46.46,0,0,0,.33-.12Z"/><path class="cls-1" d="M227.75,69.71a2,2,0,1,1-2-2A2,2,0,0,1,227.75,69.71Zm-2-1.46a1.45,1.45,0,1,0,1.43,1.46A1.42,1.42,0,0,0,225.71,68.25Z"/><path class="cls-3" d="M158.43,23.89h6c.13,2.88-.06,8-.07,8.43a82,82,0,0,0,.07,8.29,11.64,11.64,0,0,0,3,7.3,10.32,10.32,0,0,0,6.86,3H175a9.88,9.88,0,0,0,3.65-.82,10.61,10.61,0,0,0,3-2,11.79,11.79,0,0,0,2.2-3.35,10.35,10.35,0,0,0,.87-3.65,23.61,23.61,0,0,0,.16-3.3c0-1.42-.06-4-.06-5.41V23.89H191v32.6h-6.07c0-.57,0-2.86-.07-3.34-.74.48-1.52,1-2.35,1.41a15.48,15.48,0,0,1-2.71,1.17,16.72,16.72,0,0,1-3.17.72,16.28,16.28,0,0,1-3.78,0,18.63,18.63,0,0,1-6.06-1.74,16.54,16.54,0,0,1-3.8-2.74,10.89,10.89,0,0,1-2.34-2.93,13.55,13.55,0,0,1-1.77-4.74,26.22,26.22,0,0,1-.45-4.33c0-.79-.08-3.21-.08-3.95l.06-12C158.36,24,158.38,23.89,158.43,23.89Z"/><path class="cls-7" d="M221.46,56.49h6c0-.94,0-3.32,0-4.5,0-1.48,0-2.86,0-4.39s0-4.56,0-4.56-.06-4.7-.06-4.7A13.94,13.94,0,0,0,225.85,33a18,18,0,0,0-3.07-4.21,17.24,17.24,0,0,0-4.15-3.14A14.4,14.4,0,0,0,213.24,24a19.85,19.85,0,0,0-3.1,0,15.12,15.12,0,0,0-2.71.35A14.21,14.21,0,0,0,203,26a18.1,18.1,0,0,0-3.5,2.71,16,16,0,0,0-2,2.41,17.11,17.11,0,0,0-1.59,3,15.11,15.11,0,0,0-1,3.66,16.91,16.91,0,0,0,0,4.34,15,15,0,0,0,1.6,5.42,16.78,16.78,0,0,0,3.17,4.25,18.46,18.46,0,0,0,4.34,3.1,14.48,14.48,0,0,0,5.52,1.53,17.3,17.3,0,0,0,4.48-.16,14.69,14.69,0,0,0,3.62-1.08,15.75,15.75,0,0,0,1.86-1c.77-.49,1.6-1,1.8-1.08C221.41,53.23,221.44,55.89,221.46,56.49Zm-3.13-9.14a11.53,11.53,0,0,1-3.1,2.19,8.81,8.81,0,0,1-3.95.88,10.25,10.25,0,0,1-3.66-.65,10.07,10.07,0,0,1-3-1.8,10.94,10.94,0,0,1-2.19-2.61,9.72,9.72,0,0,1-1.21-3,9.15,9.15,0,0,1-.16-3,11.27,11.27,0,0,1,.62-2.65,9.63,9.63,0,0,1,1.18-2.25,10.79,10.79,0,0,1,1.5-1.73,10,10,0,0,1,6-2.61,8.54,8.54,0,0,1,4.7.65,10.59,10.59,0,0,1,5.45,5.39,9.24,9.24,0,0,1,.89,4,8.61,8.61,0,0,1-.85,4.14A10.93,10.93,0,0,1,218.33,47.35Z"/><path class="cls-1" d="M144.74,39.11c-3.51-1.31-9.87-3.69-13.29-5l-.11-.1a13.08,13.08,0,0,1,3.09-2.79,10.1,10.1,0,0,1,4-1.3,8.44,8.44,0,0,1,1.59,0,9.74,9.74,0,0,1,5.77,2.38,11.18,11.18,0,0,1,2.32,2.9h6.49a14.58,14.58,0,0,0-4.11-6.93,17.88,17.88,0,0,0-4.09-2.82A15.07,15.07,0,0,0,141.25,24a15.26,15.26,0,0,0-6.37.51,18.64,18.64,0,0,0-4.73,2.34q-5.27,3.56-6.79,10.92,5.91,2.28,11.8,4.44T147,46.66a4.45,4.45,0,0,1-1,1.24,7.9,7.9,0,0,1-1.33.92,13.63,13.63,0,0,1-2.63,1.2,8.35,8.35,0,0,1-3.33.38A9.66,9.66,0,0,1,132.94,48a11.14,11.14,0,0,1-2.55-3.33H124a15.16,15.16,0,0,0,4.28,7.42,19.63,19.63,0,0,0,4.09,2.79,14.62,14.62,0,0,0,5.17,1.53,16.19,16.19,0,0,0,4.19,0,15.24,15.24,0,0,0,3.49-.92,14.83,14.83,0,0,0,2.88-1.52,19.38,19.38,0,0,0,2.45-2,14.08,14.08,0,0,0,3-3.9,13.87,13.87,0,0,0,1.53-5Q150,41.08,144.74,39.11Z"/><path class="cls-1" d="M126.53,15.36v3a1.59,1.59,0,1,1-3.17,0v-3h.44v3a1.15,1.15,0,1,0,2.29,0v-3Z"/><path class="cls-1" d="M131,15.36V20L128,16.36v3.53h-.43V15.23l3.08,3.64V15.36Z"/><path class="cls-1" d="M131.82,19.89l1.85-4.66,1.85,4.66h-.46l-.38-.94h-2l-.37.94Zm1-1.34h1.72l-.86-2.16Z"/><path class="cls-1" d="M139.43,17.63a2.17,2.17,0,0,1-2.21,2.26h-1V15.36h1A2.17,2.17,0,0,1,139.43,17.63Zm-.44,0a1.77,1.77,0,0,0-1.77-1.87h-.54v3.73h.54A1.76,1.76,0,0,0,139,17.63Z"/></g></g></g></svg>