<svg xmlns="http://www.w3.org/2000/svg" viewBox="0 0 236.9 75"><defs><style>.cls-1,.cls-2{fill:#fff;}.cls-2{fill-rule:evenodd;}</style></defs><g id="Capa_2" data-name="Capa 2"><g id="Capa_1-2" data-name="Capa 1"><g id="Logos_-_Blanco" data-name="Logos - Blanco"><g id="LOGOS"><g id="Grupo_322" data-name="Grupo 322"><g id="Grupo_311" data-name="Grupo 311"><path id="Trazado_619" data-name="Trazado 619" class="cls-1" d="M58.5,15.64H51.3v.6H52a2.41,2.41,0,0,1,1.6.5c.4.3.6,1.2.6,2.5v12L41.6,15.64H36v.1H25.3v1h1.3a4.17,4.17,0,0,1,2.8.9c.7.6,1,2.1,1,4.4v14.4c0,4.1-.4,6.9-1.2,8.5a8.19,8.19,0,0,1-3.9,3.7,13,13,0,0,1-5.9,1.3,9.77,9.77,0,0,1-5.4-1.4,7.26,7.26,0,0,1-3-4,22.09,22.09,0,0,1-.9-7V21.94c0-2.3.4-3.8,1.1-4.4a4,4,0,0,1,2.7-.9h1.4v-1H0v1H1.3c1.6,0,2.6.4,3.1,1.3a8.34,8.34,0,0,1,.7,4v13.9c0,4.2.3,7.3,1,9.4a9.35,9.35,0,0,0,4.3,5,16.81,16.81,0,0,0,8.6,1.9c3.6,0,6.5-.7,8.7-2.2a9.22,9.22,0,0,0,4.1-5.5,30,30,0,0,0,.9-7.9V22.14a7.93,7.93,0,0,1,.9-4.3,3.14,3.14,0,0,1,2.9-1.3h1.3v-.1l.2.1a7.41,7.41,0,0,1,2,1.7v14.4c0,1.4-.2,2.2-.6,2.5a2.5,2.5,0,0,1-1.6.5h-.7v.6h7.2v-.6h-.7a2.31,2.31,0,0,1-1.6-.5c-.4-.3-.6-1.2-.6-2.5V20l13.4,16.4.8-2.4V19.24a5,5,0,0,1,.4-2.4,2.18,2.18,0,0,1,1.8-.6h.7Z"/><path id="Trazado_620" data-name="Trazado 620" class="cls-2" d="M68.1,15.53H61.3L55.6,34l-.8,2.4-.1.2H60l1.3-4.2h5.6l1.2,4.2h6.6Zm-5.8,12.3,1.7-6.1,1.7,6.1Z"/><path id="Trazado_621" data-name="Trazado 621" class="cls-2" d="M83.2,15.53H75v21.2h8.6a9.77,9.77,0,0,0,7.4-3A10.58,10.58,0,0,0,93.8,26a11.26,11.26,0,0,0-2.6-7.3C89.4,16.53,86.7,15.53,83.2,15.53Zm-1.7,16.3V20.33h1.7A3.11,3.11,0,0,1,86,22a7.21,7.21,0,0,1,1,4,7.83,7.83,0,0,1-1.1,4.3,3.28,3.28,0,0,1-2.7,1.6H81.5Z"/><path id="Trazado_622" data-name="Trazado 622" class="cls-1" d="M33.2,8.3A2.71,2.71,0,0,0,30.5,11v.08a2.78,2.78,0,0,0,2.7,2.8,2.7,2.7,0,0,0,2.7-2.72V11.1a2.72,2.72,0,0,0-2.62-2.8Z"/><path id="Trazado_623" data-name="Trazado 623" class="cls-1" d="M27.4,2.5a2.71,2.71,0,0,0-2.7,2.72V5.3a2.78,2.78,0,0,0,2.7,2.8,2.7,2.7,0,0,0,2.7-2.72V5.3a2.71,2.71,0,0,0-2.62-2.8Z"/><path id="Trazado_624" data-name="Trazado 624" class="cls-1" d="M18.7,0A2.71,2.71,0,0,0,16,2.72V2.8a2.78,2.78,0,0,0,2.7,2.8,2.7,2.7,0,0,0,2.7-2.72V2.8A2.6,2.6,0,0,0,19,0Z"/><path id="Trazado_625" data-name="Trazado 625" class="cls-1" d="M10.1,2.5A2.71,2.71,0,0,0,7.4,5.22V5.3a2.78,2.78,0,0,0,2.7,2.8,2.7,2.7,0,0,0,2.7-2.72V5.3A2.78,2.78,0,0,0,10.1,2.5Z"/><path id="Trazado_626" data-name="Trazado 626" class="cls-1" d="M4.3,8.3A2.71,2.71,0,0,0,1.6,11v.08a2.78,2.78,0,0,0,2.7,2.8A2.7,2.7,0,0,0,7,11.18V11.1A2.65,2.65,0,0,0,4.5,8.31Z"/><path id="Trazado_627" data-name="Trazado 627" class="cls-1" d="M88.7,38.66A2.7,2.7,0,0,0,86,41.38v.08a2.75,2.75,0,1,0,2.7-2.8Z"/><path id="Trazado_628" data-name="Trazado 628" class="cls-1" d="M82.9,44.37a2.7,2.7,0,0,0-2.7,2.72v.08A2.78,2.78,0,0,0,82.9,50a2.71,2.71,0,0,0,2.7-2.73v-.07A2.78,2.78,0,0,0,82.9,44.37Z"/><path id="Trazado_629" data-name="Trazado 629" class="cls-1" d="M74.2,47a2.71,2.71,0,0,0-2.7,2.72v.08A2.75,2.75,0,1,0,74.2,47Z"/><path id="Trazado_630" data-name="Trazado 630" class="cls-1" d="M65.5,44.37a2.7,2.7,0,0,0-2.7,2.72v.08a2.75,2.75,0,1,0,2.7-2.8Z"/><path id="Trazado_631" data-name="Trazado 631" class="cls-1" d="M59.8,38.66a2.7,2.7,0,0,0-2.7,2.72v.08a2.75,2.75,0,1,0,2.7-2.8Z"/><path id="Trazado_632" data-name="Trazado 632" class="cls-1" d="M5.9,55.68H5.1v4.8a1.81,1.81,0,0,1-.4,1.4,1.67,1.67,0,0,1-1.3.4,1.72,1.72,0,0,1-.8-.2,1,1,0,0,1-.6-.5,2.89,2.89,0,0,1-.2-1.2v-4.8H.8v4.8a2.82,2.82,0,0,0,.6,2,2.53,2.53,0,0,0,1.9.6,2.41,2.41,0,0,0,1.8-.6,2.54,2.54,0,0,0,.7-2.1v-4.6Z"/><path id="Trazado_633" data-name="Trazado 633" class="cls-1" d="M9.8,57.39a1.94,1.94,0,0,0-1.7,1.1v-1H7.3v5.4h.8v-3a2.11,2.11,0,0,1,.4-1.4,2,2,0,0,1,1.1-.4,1.08,1.08,0,0,1,.8.3,1.58,1.58,0,0,1,.3,1.1V63h.8v-3.1a3.66,3.66,0,0,0-.2-1.4,1.29,1.29,0,0,0-.6-.7A1,1,0,0,0,9.8,57.39Z"/><path id="Trazado_634" data-name="Trazado 634" class="cls-2" d="M13.9,55.68H13v.9h.9Zm0,1.9H13V63h.8v-5.4Z"/><path id="Trazado_635" data-name="Trazado 635" class="cls-1" d="M19.3,57.59h-.7L17.1,62l-1.5-4.4h-1l2,5.4h.9Z"/><path id="Trazado_636" data-name="Trazado 636" class="cls-2" d="M22,57.39a2.45,2.45,0,0,0-1.8.8,2.82,2.82,0,0,0-.7,2.1,3.16,3.16,0,0,0,.7,2.1,2.53,2.53,0,0,0,1.8.8,2.77,2.77,0,0,0,1.5-.5,2,2,0,0,0,.8-1.2l-.8-.2a1.6,1.6,0,0,1-1.5,1.1,1.71,1.71,0,0,1-1.1-.4,2.28,2.28,0,0,1-.5-1.7h3.9a2.89,2.89,0,0,0-.7-2.2A2,2,0,0,0,22,57.39Zm-1.5,2.3a1.66,1.66,0,0,1,.5-1.2,1.39,1.39,0,0,1,1.1-.5,1.08,1.08,0,0,1,.8.3,2.42,2.42,0,0,1,.5.6,1.94,1.94,0,0,1,.1.8Z"/><path id="Trazado_637" data-name="Trazado 637" class="cls-1" d="M27.8,57.39a1.26,1.26,0,0,0-.8.3,3.06,3.06,0,0,0-.8,1.2v-1.3h-.7V63h.8v-2.9a2.14,2.14,0,0,1,.5-1.4,1.62,1.62,0,0,1,1.2-.5h.2v-.8Z"/><path id="Trazado_638" data-name="Trazado 638" class="cls-1" d="M30.5,57.39a2.4,2.4,0,0,0-1.5.5,1.45,1.45,0,0,0-.14,2l0,.05a2,2,0,0,0,1.1.5l1.1.2c.6.1.9.4.9.8a.76.76,0,0,1-.4.7c-.2.2-.5.2-.9.2-1,0-1.5-.3-1.7-1l-.8.2a2.26,2.26,0,0,0,2.4,1.6,2.62,2.62,0,0,0,1.6-.5,1.44,1.44,0,0,0,.6-1.2c0-.9-.6-1.4-1.7-1.6l-1.1-.2c-.6-.1-.8-.4-.8-.8a.6.6,0,0,1,.3-.6,1.72,1.72,0,0,1,.8-.2,1.4,1.4,0,0,1,1.4.9l.8-.2C32.4,57.89,31.6,57.39,30.5,57.39Z"/><path id="Trazado_639" data-name="Trazado 639" class="cls-2" d="M34.8,55.68h-.9v.9h.9Zm-.1,1.9h-.8V63h.8Z"/><path id="Trazado_640" data-name="Trazado 640" class="cls-2" d="M40.5,55.68h-.8v2.7a1.81,1.81,0,0,0-1.6-.9,1.94,1.94,0,0,0-1.6.8,3.5,3.5,0,0,0-.6,2.1,3.17,3.17,0,0,0,.6,2,1.92,1.92,0,0,0,1.6.8,1.83,1.83,0,0,0,1.7-1.1V63h.8v-7.3Zm-2.4,6.8a1.09,1.09,0,0,1-1-.6,2.66,2.66,0,0,1-.4-1.7,2.53,2.53,0,0,1,.4-1.6,1.25,1.25,0,0,1,1-.6,1.29,1.29,0,0,1,1,.4,1.5,1.5,0,0,1,.4,1.1v1.1a2,2,0,0,1-.5,1.2A.86.86,0,0,1,38.1,62.48Z"/><path id="Trazado_641" data-name="Trazado 641" class="cls-2" d="M44,57.39q-2.1,0-2.4,1.5l.8.1c.1-.7.6-1,1.5-1a1.49,1.49,0,0,1,.8.2.65.65,0,0,1,.4.5,2.27,2.27,0,0,1,.1.9h-.7a4.64,4.64,0,0,0-2.4.5,1.61,1.61,0,0,0-.7,1.4,1.88,1.88,0,0,0,.5,1.2,2,2,0,0,0,1.4.5,2.06,2.06,0,0,0,1.9-1.1c0,.5.1.8.1,1h.8A3.73,3.73,0,0,1,46,62v-2.3a2.46,2.46,0,0,0-.5-1.7Q45.2,57.39,44,57.39Zm-.5,5.1a1.28,1.28,0,0,1-.9-.3.9.9,0,0,1-.3-.7,1.2,1.2,0,0,1,.6-1,3.23,3.23,0,0,1,1.5-.3h.8v.4a2.11,2.11,0,0,1-.5,1.3A1.33,1.33,0,0,1,43.5,62.49Z"/><path id="Trazado_642" data-name="Trazado 642" class="cls-2" d="M51.8,55.68H51v2.7a1.81,1.81,0,0,0-1.6-.9,1.94,1.94,0,0,0-1.6.8,3.5,3.5,0,0,0-.6,2.1,3.17,3.17,0,0,0,.6,2,1.92,1.92,0,0,0,1.6.8,1.83,1.83,0,0,0,1.7-1.1V63h.8v-7.3Zm-2.3,6.8a1.09,1.09,0,0,1-1-.6,3.55,3.55,0,0,1-.4-1.7,2.53,2.53,0,0,1,.4-1.6,1.25,1.25,0,0,1,1-.6,1.29,1.29,0,0,1,1,.4,1.5,1.5,0,0,1,.4,1.1v1.1a2,2,0,0,1-.5,1.2A.92.92,0,0,1,49.5,62.48Z"/><path id="Trazado_643" data-name="Trazado 643" class="cls-1" d="M61.3,55.68h-.7v5.9l-3.5-6H56V63h.7v-6.5l3.8,6.4h.9v-7.2Z"/><path id="Trazado_644" data-name="Trazado 644" class="cls-2" d="M65,57.39q-2.1,0-2.4,1.5l.8.1c.1-.7.6-1,1.5-1a1.72,1.72,0,0,1,.8.2.65.65,0,0,1,.4.5,2.27,2.27,0,0,1,.1.9h-.7a4.64,4.64,0,0,0-2.4.5,1.61,1.61,0,0,0-.7,1.4,1.88,1.88,0,0,0,.5,1.2,2,2,0,0,0,1.4.5,2.06,2.06,0,0,0,1.9-1.1c0,.5.1.8.1,1h.8A3.73,3.73,0,0,1,67,62v-2.3a2.46,2.46,0,0,0-.5-1.7A1.72,1.72,0,0,0,65,57.39Zm-.5,5.1a1.28,1.28,0,0,1-.9-.3.9.9,0,0,1-.3-.7,1.2,1.2,0,0,1,.6-1,3.39,3.39,0,0,1,1.6-.3h.8v.4a2.11,2.11,0,0,1-.5,1.3A1.79,1.79,0,0,1,64.5,62.49Z"/><path id="Trazado_645" data-name="Trazado 645" class="cls-1" d="M70.4,57.39a2.09,2.09,0,0,0-1.7.8,3.27,3.27,0,0,0-.6,2.1,3.19,3.19,0,0,0,.6,2,1.89,1.89,0,0,0,1.7.8,2.22,2.22,0,0,0,1.4-.5,2.08,2.08,0,0,0,.7-1.4l-.8-.1c-.2.9-.6,1.4-1.3,1.4a1,1,0,0,1-1-.6,3.48,3.48,0,0,1-.4-1.6,2.33,2.33,0,0,1,.4-1.5,1.21,1.21,0,0,1,1.1-.6,1.32,1.32,0,0,1,1.3,1.3l.8-.1a2.32,2.32,0,0,0-.7-1.4A2,2,0,0,0,70.4,57.39Z"/><path id="Trazado_646" data-name="Trazado 646" class="cls-2" d="M74.3,55.68h-.9v.9h.9Zm0,1.9h-.8V63h.8Z"/><path id="Trazado_647" data-name="Trazado 647" class="cls-2" d="M77.8,57.39a2.45,2.45,0,0,0-1.8.8,2.82,2.82,0,0,0-.7,2.1,3.67,3.67,0,0,0,.6,2.1,1.89,1.89,0,0,0,1.7.8,2.53,2.53,0,0,0,1.8-.8,2.84,2.84,0,0,0,.7-2.1,3.17,3.17,0,0,0-.6-2A2,2,0,0,0,77.8,57.39Zm0,5.1a1.63,1.63,0,0,1-1.1-.5,2.5,2.5,0,0,1-.4-1.7,2.37,2.37,0,0,1,.4-1.6,1.39,1.39,0,0,1,1.1-.5,1.55,1.55,0,0,1,1.1.5,2.31,2.31,0,0,1,.5,1.6A2.69,2.69,0,0,1,79,62,2.14,2.14,0,0,1,77.8,62.49Z"/><path id="Trazado_648" data-name="Trazado 648" class="cls-1" d="M83.8,57.39a1.94,1.94,0,0,0-1.7,1.1v-1h-.8v5.4h.8v-3a2.11,2.11,0,0,1,.4-1.4,1.39,1.39,0,0,1,1.1-.5,1.08,1.08,0,0,1,.8.3,1.58,1.58,0,0,1,.3,1.1v3.5h.8v-3.1a3.66,3.66,0,0,0-.2-1.4,1.29,1.29,0,0,0-.6-.7A1.19,1.19,0,0,0,83.8,57.39Z"/><path id="Trazado_649" data-name="Trazado 649" class="cls-2" d="M89.1,57.39q-2.1,0-2.4,1.5l.8.1c.1-.7.6-1,1.5-1a2.15,2.15,0,0,1,.9.2.65.65,0,0,1,.4.5,2.27,2.27,0,0,1,.1.9h-.7a4.64,4.64,0,0,0-2.4.5,1.61,1.61,0,0,0-.7,1.4,1.88,1.88,0,0,0,.5,1.2,2,2,0,0,0,1.4.5,2.06,2.06,0,0,0,1.9-1.1c0,.5.1.8.1,1h.8a3.73,3.73,0,0,1-.1-1.1v-2.3a2.46,2.46,0,0,0-.5-1.7A1.8,1.8,0,0,0,89.1,57.39Zm-.5,5.1a1.28,1.28,0,0,1-.9-.3.9.9,0,0,1-.3-.7,1.2,1.2,0,0,1,.6-1,3.23,3.23,0,0,1,1.5-.3h.8v.4a2.11,2.11,0,0,1-.5,1.3A1.33,1.33,0,0,1,88.6,62.49Z"/><rect id="Rectángulo_138" data-name="Rectángulo 138" class="cls-1" x="92.7" y="55.68" width="0.8" height="7.4"/><path id="Trazado_650" data-name="Trazado 650" class="cls-2" d="M3.5,65.8h-1L0,73.2H.8l.7-2.1H4.2l.7,2.1h.9ZM1.7,70.3l1.1-3.5L4,70.3Z"/><path id="Trazado_651" data-name="Trazado 651" class="cls-2" d="M7.3,65.8H6.5v7.3h.4l.3-.9a1.86,1.86,0,0,0,1.7,1,1.94,1.94,0,0,0,1.6-.8,3.17,3.17,0,0,0,.6-2,3.11,3.11,0,0,0-.6-2.1,1.88,1.88,0,0,0-1.6-.7,1.84,1.84,0,0,0-1.6,1.1Zm1.5,6.8a1.44,1.44,0,0,1-1-.4A1.68,1.68,0,0,1,7.3,71V69.8a1.89,1.89,0,0,1,.5-1.1,1.29,1.29,0,0,1,1-.4,1.25,1.25,0,0,1,1.1.6,2.83,2.83,0,0,1,.4,1.7,2.22,2.22,0,0,1-.4,1.5A1.55,1.55,0,0,1,8.8,72.6Z"/><path id="Trazado_652" data-name="Trazado 652" class="cls-2" d="M13.1,65.8h-.9v.9h.9Zm0,1.9h-.8v5.4h.8Z"/><path id="Trazado_653" data-name="Trazado 653" class="cls-2" d="M16.7,67.6a2.53,2.53,0,0,0-1.8.8,2.84,2.84,0,0,0-.7,2.1,3.14,3.14,0,0,0,.7,2.1,2.53,2.53,0,0,0,1.8.8,2.06,2.06,0,0,0,1.5-.5,2,2,0,0,0,.8-1.2l-.8-.2a1.59,1.59,0,0,1-1.5,1.1,1.66,1.66,0,0,1-1.1-.4,2.27,2.27,0,0,1-.5-1.7H19a2.9,2.9,0,0,0-.7-2.2A1.75,1.75,0,0,0,16.7,67.6Zm-1.6,2.3a1.7,1.7,0,0,1,.5-1.2,1.46,1.46,0,0,1,1.1-.5,2,2,0,0,1,.8.2,2.85,2.85,0,0,1,.5.6,2,2,0,0,1,.1.8h-3Z"/><path id="Trazado_654" data-name="Trazado 654" class="cls-1" d="M22.5,67.6a1.38,1.38,0,0,0-.8.3,3.06,3.06,0,0,0-.8,1.2V67.8h-.7v5.4H21V70.3a2.18,2.18,0,0,1,.5-1.4,1.35,1.35,0,0,1,1.2-.5h.2v-.8Z"/><path id="Trazado_655" data-name="Trazado 655" class="cls-1" d="M24.9,66.3l-.8.1v1.4h-1v.7h1v3.3a1.38,1.38,0,0,0,1.14,1.6,1.19,1.19,0,0,0,.46,0,2.41,2.41,0,0,0,.8-.1v-.7c-.2,0-.5.1-.7.1-.6,0-.9-.3-.9-.8V68.5h1.2v-.7H24.9Z"/><path id="Trazado_656" data-name="Trazado 656" class="cls-2" d="M29.3,67.6q-2.1,0-2.4,1.5l.8.1c.1-.7.6-1,1.5-1a1.58,1.58,0,0,1,.8.2.68.68,0,0,1,.4.5,2.29,2.29,0,0,1,.1.9h-.7a4.85,4.85,0,0,0-2.4.5,1.63,1.63,0,0,0-.7,1.4,1.83,1.83,0,0,0,.5,1.2,2,2,0,0,0,1.4.5,2,2,0,0,0,1.9-1.1c0,.5.1.8.1,1h.8a3.7,3.7,0,0,1-.1-1.1V69.9a2.48,2.48,0,0,0-.5-1.7C30.6,67.7,30,67.6,29.3,67.6Zm-.5,5.1a1.19,1.19,0,0,1-.9-.3.89.89,0,0,1-.3-.7,1.22,1.22,0,0,1,.6-1,3.36,3.36,0,0,1,1.5-.3h.8v.4a2.06,2.06,0,0,1-.5,1.3A1.41,1.41,0,0,1,28.8,72.7Z"/><path id="Trazado_657" data-name="Trazado 657" class="cls-1" d="M39.8,67.7h-.7l-1.5,4.1-1.5-4.1h-.9L37.1,73a4.05,4.05,0,0,1-.5,1.1.85.85,0,0,1-.7.2,1.38,1.38,0,0,1-.6-.1v.7a1.86,1.86,0,0,0,.7.1c.7,0,1.2-.4,1.5-1.3Z"/><path id="Trazado_658" data-name="Trazado 658" class="cls-2" d="M46.3,67.6q-2.1,0-2.4,1.5l.8.1c.1-.7.6-1,1.5-1a1.58,1.58,0,0,1,.8.2.68.68,0,0,1,.4.5,2.29,2.29,0,0,1,.1.9h-.7a4.85,4.85,0,0,0-2.4.5,1.63,1.63,0,0,0-.7,1.4,1.83,1.83,0,0,0,.5,1.2,2,2,0,0,0,1.4.5,2,2,0,0,0,1.9-1.1c0,.5.1.8.1,1h.8a3.7,3.7,0,0,1-.1-1.1V69.9a2.48,2.48,0,0,0-.5-1.7C47.5,67.7,47,67.6,46.3,67.6Zm-.5,5.1a1.19,1.19,0,0,1-.9-.3.89.89,0,0,1-.3-.7,1.22,1.22,0,0,1,.6-1,3.36,3.36,0,0,1,1.5-.3h.8v.4a2.06,2.06,0,0,1-.5,1.3A1.41,1.41,0,0,1,45.8,72.7Z"/><path id="Trazado_659" data-name="Trazado 659" class="cls-2" d="M55.7,65.8H53.2v7.3H56A2.47,2.47,0,0,0,58.1,72a3.86,3.86,0,0,0,.8-2.6,4,4,0,0,0-.9-2.6A2.93,2.93,0,0,0,55.7,65.8Zm-1.5,6.6V66.6h1.5a2,2,0,0,1,1.8.9,3.34,3.34,0,0,1,.6,2,3.79,3.79,0,0,1-.6,2.2,2.19,2.19,0,0,1-1.8.8H54.2Z"/><path id="Trazado_660" data-name="Trazado 660" class="cls-2" d="M61,65.8h-.9v.9H61Zm0,1.9h-.8v5.4H61Z"/><path id="Trazado_661" data-name="Trazado 661" class="cls-1" d="M64,67.6a2.46,2.46,0,0,0-1.5.5,1.45,1.45,0,0,0-.14,2.05l0,0a1.83,1.83,0,0,0,1.1.5l1.1.2c.6.1.9.4.9.8a.75.75,0,0,1-.4.7c-.2.2-.5.2-.9.2-1,0-1.5-.3-1.7-1l-.8.2a2.24,2.24,0,0,0,2.4,1.6,2.56,2.56,0,0,0,1.6-.5,1.41,1.41,0,0,0,.6-1.2c0-.9-.6-1.4-1.7-1.6l-1.1-.2c-.6-.1-.8-.4-.8-.8a.61.61,0,0,1,.3-.6,2,2,0,0,1,.8-.2,1.49,1.49,0,0,1,1.4.8l.8-.2C65.9,68,65.2,67.6,64,67.6Z"/><path id="Trazado_662" data-name="Trazado 662" class="cls-1" d="M68.4,66.3l-.8.1v1.4h-1v.7h1v3.3a1.38,1.38,0,0,0,1.14,1.6,1.19,1.19,0,0,0,.46,0,2.41,2.41,0,0,0,.8-.1v-.7c-.2,0-.5.1-.7.1-.6,0-.9-.3-.9-.8V68.5h1.2v-.7H68.4Z"/><path id="Trazado_663" data-name="Trazado 663" class="cls-2" d="M72.8,67.6q-2.1,0-2.4,1.5l.8.1c.1-.7.6-1,1.5-1a1.58,1.58,0,0,1,.8.2.68.68,0,0,1,.4.5,2.29,2.29,0,0,1,.1.9h-.7a4.85,4.85,0,0,0-2.4.5,1.63,1.63,0,0,0-.7,1.4,1.83,1.83,0,0,0,.5,1.2,2,2,0,0,0,1.4.5A2,2,0,0,0,74,72.3c0,.5.1.8.1,1H75a3.7,3.7,0,0,1-.1-1.1V69.9a2.48,2.48,0,0,0-.5-1.7C74.1,67.7,73.6,67.6,72.8,67.6Zm-.5,5.1a1.19,1.19,0,0,1-.9-.3.89.89,0,0,1-.3-.7,1.22,1.22,0,0,1,.6-1,3.36,3.36,0,0,1,1.5-.3H74v.4a2.06,2.06,0,0,1-.5,1.3A1.29,1.29,0,0,1,72.3,72.7Z"/><path id="Trazado_664" data-name="Trazado 664" class="cls-1" d="M78.9,67.6a2,2,0,0,0-1.7,1.1v-1h-.8v5.4h.8v-3a2.13,2.13,0,0,1,.4-1.4,1.63,1.63,0,0,1,1.1-.5,1.12,1.12,0,0,1,.8.3,1.61,1.61,0,0,1,.3,1.1v3.5h.8V70a3.72,3.72,0,0,0-.2-1.4,1.37,1.37,0,0,0-.6-.7C79.7,67.7,79.3,67.6,78.9,67.6Z"/><path id="Trazado_665" data-name="Trazado 665" class="cls-1" d="M84.1,67.6a2.15,2.15,0,0,0-1.7.8,3.27,3.27,0,0,0-.6,2.1,3.17,3.17,0,0,0,.6,2,1.87,1.87,0,0,0,1.7.8,2.37,2.37,0,0,0,1.4-.5,2.06,2.06,0,0,0,.7-1.4l-.8-.1c-.2.9-.6,1.4-1.3,1.4a1.09,1.09,0,0,1-1-.6,2.5,2.5,0,0,1-.4-1.6,2.35,2.35,0,0,1,.4-1.5,1.25,1.25,0,0,1,1.1-.6c.7,0,1.2.4,1.3,1.3l.8-.1a2.38,2.38,0,0,0-.7-1.4A1.72,1.72,0,0,0,84.1,67.6Z"/><path id="Trazado_666" data-name="Trazado 666" class="cls-2" d="M88.1,65.8h-.9v.9h.9Zm0,1.9h-.8v5.4h.8Z"/><path id="Trazado_667" data-name="Trazado 667" class="cls-2" d="M91.7,67.6q-2.1,0-2.4,1.5l.8.1c.1-.7.6-1,1.5-1a1.58,1.58,0,0,1,.8.2.68.68,0,0,1,.4.5,2.29,2.29,0,0,1,.1.9h-.7a4.85,4.85,0,0,0-2.4.5,1.63,1.63,0,0,0-.7,1.4,1.83,1.83,0,0,0,.5,1.2,2,2,0,0,0,1.4.5,2,2,0,0,0,1.9-1.1c0,.5.1.8.1,1h.8a3.7,3.7,0,0,1-.1-1.1V69.9a2.48,2.48,0,0,0-.5-1.7C93,67.7,92.4,67.6,91.7,67.6Zm-.5,5.1a1.19,1.19,0,0,1-.9-.3.89.89,0,0,1-.3-.7,1.22,1.22,0,0,1,.6-1,3.36,3.36,0,0,1,1.5-.3h.8v.4a2.06,2.06,0,0,1-.5,1.3A1.41,1.41,0,0,1,91.2,72.7Z"/></g><g id="Grupo_321" data-name="Grupo 321"><g id="Grupo_317" data-name="Grupo 317"><g id="Grupo_315" data-name="Grupo 315"><g id="Grupo_312" data-name="Grupo 312"><rect id="Rectángulo_139" data-name="Rectángulo 139" class="cls-1" x="197.9" y="61.6" width="39" height="0.9"/></g><g id="Grupo_313" data-name="Grupo 313"><rect id="Rectángulo_140" data-name="Rectángulo 140" class="cls-1" x="158.9" y="61.6" width="39" height="0.9"/></g><g id="Grupo_314" data-name="Grupo 314"><rect id="Rectángulo_141" data-name="Rectángulo 141" class="cls-1" x="120" y="61.6" width="39" height="0.9"/></g></g><g id="Grupo_316" data-name="Grupo 316"><path id="Trazado_668" data-name="Trazado 668" class="cls-1" d="M128.6,69.3a2,2,0,0,1,1.7,2,1.84,1.84,0,0,1-1.87,1.81h-.13a2.87,2.87,0,0,1-2-.7l.4-.5a2.41,2.41,0,0,0,1.6.6c.2,0,1.4-.1,1.4-1.2,0-.9-.7-1.2-1.5-1.4s-1.7-.6-1.7-1.9c0-1,.8-1.6,1.9-1.6a3.51,3.51,0,0,1,1.8.6l-.4.5a2.43,2.43,0,0,0-1.4-.5c-.6,0-1.2.3-1.2,1C127.1,68.9,127.8,69,128.6,69.3Z"/><path id="Trazado_669" data-name="Trazado 669" class="cls-1" d="M132,67.6a.4.4,0,1,1-.4-.4h0C131.8,67.1,132,67.3,132,67.6Zm-.2,1.4v3.9h-.6V69Z"/><path id="Trazado_670" data-name="Trazado 670" class="cls-1" d="M135.5,71.9c0,.8-.7,1.1-1.4,1.1a2,2,0,0,1-1.4-.6l.3-.5a1.39,1.39,0,0,0,1,.5c.1,0,.8,0,.8-.5s-.2-.5-.8-.7-1.2-.3-1.2-1.2a1.22,1.22,0,0,1,1.3-1.1,1.7,1.7,0,0,1,1.2.5l-.4.5a1.27,1.27,0,0,0-.9-.4c-.3,0-.7.1-.7.5s.3.5.8.6C134.8,70.9,135.5,71,135.5,71.9Z"/><path id="Trazado_671" data-name="Trazado 671" class="cls-1" d="M138.2,72.8a1.32,1.32,0,0,1-.7.2,1,1,0,0,1-1-1V69.5h-.4v-.6h.4V67.4h.6v1.5h.8v.6h-.8v2.4c0,.2.1.5.4.5a.34.34,0,0,0,.3-.1Z"/><path id="Trazado_672" data-name="Trazado 672" class="cls-1" d="M142.3,72.4a2.08,2.08,0,0,1-1.6.6,2.05,2.05,0,0,1-.1-4.1c1.1,0,1.8.9,1.8,2.2h-3a1.32,1.32,0,0,0,1.3,1.3,1.62,1.62,0,0,0,1.2-.5Zm-2.9-1.9h2.3a1.1,1.1,0,0,0-1.1-1,1.37,1.37,0,0,0-1.2,1Z"/><path id="Trazado_673" data-name="Trazado 673" class="cls-1" d="M148.6,72.9H148V70.4a.83.83,0,0,0-.76-.9h-.14a.9.9,0,0,0-.9.9v2.5h-.6V70.4a.83.83,0,0,0-.76-.9h-.14a.9.9,0,0,0-.9.9v2.5h-.6V69h.6v.4a1.39,1.39,0,0,1,1-.5,1,1,0,0,1,1,.6,1.64,1.64,0,0,1,1.3-.6,1.38,1.38,0,0,1,1.3,1.45V72.9Z"/><path id="Trazado_674" data-name="Trazado 674" class="cls-1" d="M152.8,72.9h-.6v-.4a1.63,1.63,0,0,1-1.3.5,1.34,1.34,0,0,1-1.4-1.28v0a1.2,1.2,0,0,1,.5-1,2.61,2.61,0,0,1,2.2-.2c-.1-.7-.3-.9-1-.9a3.08,3.08,0,0,0-1.2.3l-.2-.5a3.76,3.76,0,0,1,1.5-.4c1.4,0,1.6.9,1.6,1.9v2Zm-.6-1.9c-1.1-.2-1.6-.1-1.8.1a.61.61,0,0,0-.3.6c0,.1.1.7.9.7s1.2-.4,1.2-1.1V71Z"/><path id="Trazado_675" data-name="Trazado 675" class="cls-1" d="M161.1,66.4v4.3a2.3,2.3,0,1,1-4.6,0V66.4h.6v4.3a1.69,1.69,0,0,0,1.67,1.7h0a1.75,1.75,0,0,0,1.7-1.7V66.4Z"/><path id="Trazado_676" data-name="Trazado 676" class="cls-1" d="M165.6,72.9H165V70.5a.9.9,0,0,0-.77-1,.89.89,0,0,0-.23,0,1,1,0,0,0-1,1v2.4h-.6V69h.6v.4a1.41,1.41,0,0,1,1.1-.5,1.43,1.43,0,0,1,1.41,1.45.76.76,0,0,1,0,.15v2.4Z"/><path id="Trazado_677" data-name="Trazado 677" class="cls-1" d="M167.5,67.6a.4.4,0,1,1-.4-.4h0C167.3,67.1,167.5,67.3,167.5,67.6Zm-.1,1.4v3.9h-.6V69Z"/><path id="Trazado_678" data-name="Trazado 678" class="cls-1" d="M172,69l-1.9,4.1L168.2,69h.7l1.3,2.7,1.3-2.7Z"/><path id="Trazado_679" data-name="Trazado 679" class="cls-1" d="M176.1,72.4a2.08,2.08,0,0,1-1.6.6,2.05,2.05,0,0,1-.1-4.1c1.1,0,1.8.9,1.8,2.2h-3a1.32,1.32,0,0,0,1.3,1.3,1.62,1.62,0,0,0,1.2-.5Zm-2.9-1.9h2.3a1.1,1.1,0,0,0-1.1-1,1.37,1.37,0,0,0-1.2,1Z"/><path id="Trazado_680" data-name="Trazado 680" class="cls-1" d="M179.6,69.1l-.3.6a.77.77,0,0,0-.6-.2.9.9,0,0,0-.9.9v2.5h-.6V69h.6v.5a1.36,1.36,0,0,1,1.1-.6A1.94,1.94,0,0,1,179.6,69.1Z"/><path id="Trazado_681" data-name="Trazado 681" class="cls-1" d="M182.9,71.9c0,.8-.7,1.1-1.4,1.1a2,2,0,0,1-1.4-.6l.3-.5a1.39,1.39,0,0,0,1,.5c.1,0,.8,0,.8-.5s-.2-.5-.8-.7-1.2-.3-1.2-1.2a1.22,1.22,0,0,1,1.3-1.1,1.7,1.7,0,0,1,1.2.5l-.4.5a1.27,1.27,0,0,0-.9-.4c-.3,0-.7.1-.7.5s.3.5.8.6C182.3,70.9,182.9,71,182.9,71.9Z"/><path id="Trazado_682" data-name="Trazado 682" class="cls-1" d="M184.6,67.6a.4.4,0,1,1-.4-.4h0C184.4,67.1,184.6,67.3,184.6,67.6Zm-.1,1.4v3.9h-.6V69Z"/><path id="Trazado_683" data-name="Trazado 683" class="cls-1" d="M187.4,72.8a1.32,1.32,0,0,1-.7.2,1,1,0,0,1-1-1V69.5h-.4v-.6h.4V67.4h.6v1.5h.8v.6h-.8v2.4c0,.2.1.5.4.5a.34.34,0,0,0,.3-.1Z"/><path id="Trazado_684" data-name="Trazado 684" class="cls-1" d="M191.3,72.9h-.6v-.4a1.63,1.63,0,0,1-1.3.5,1.34,1.34,0,0,1-1.4-1.28v0a1.2,1.2,0,0,1,.5-1,2.61,2.61,0,0,1,2.2-.2c-.1-.7-.3-.9-1-.9a3.08,3.08,0,0,0-1.2.3l-.2-.5a3.76,3.76,0,0,1,1.5-.4c1.4,0,1.6.9,1.6,1.9v2Zm-.6-1.9c-1.1-.2-1.6-.1-1.8.1a.61.61,0,0,0-.3.6c0,.1.1.7.9.7s1.2-.4,1.2-1.1V71Z"/><path id="Trazado_685" data-name="Trazado 685" class="cls-1" d="M195,69.1l-.3.6a.77.77,0,0,0-.6-.2.9.9,0,0,0-.9.9v2.5h-.6V69h.6v.5a1.36,1.36,0,0,1,1.1-.6A2.81,2.81,0,0,1,195,69.1Z"/><path id="Trazado_686" data-name="Trazado 686" class="cls-1" d="M196.5,67.6a.4.4,0,1,1-.4-.4h0C196.3,67.1,196.5,67.3,196.5,67.6Zm-.1,1.4v3.9h-.6V69Z"/><path id="Trazado_687" data-name="Trazado 687" class="cls-1" d="M201.5,71a2,2,0,0,1-2.06,2h0a2.09,2.09,0,0,1-2.1-2,2.05,2.05,0,0,1,2-2.1h.1A2.12,2.12,0,0,1,201.5,71Zm-2.1-1.5a1.5,1.5,0,1,0,0,3,1.38,1.38,0,0,0,1.4-1.38V71A1.45,1.45,0,0,0,199.4,69.5Z"/><path id="Trazado_688" data-name="Trazado 688" class="cls-1" d="M204.6,72.9l2.7-6.7,2.7,6.7h-.7l-.5-1.4h-2.9l-.5,1.4ZM206,71h2.5l-1.2-3.1Z"/><path id="Trazado_689" data-name="Trazado 689" class="cls-1" d="M210.9,66.4h.6v3.2a1.64,1.64,0,0,1,1.3-.6,1.86,1.86,0,0,1,1.9,1.82,1.08,1.08,0,0,1,0,.18,2,2,0,0,1-1.84,2.1h-.16a1.72,1.72,0,0,1-1.3-.6V73h-.6V66.4Zm1.9,6.1a1.48,1.48,0,1,0-1.3-1.5,1.27,1.27,0,0,0,1,1.48.88.88,0,0,0,.28,0Z"/><path id="Trazado_690" data-name="Trazado 690" class="cls-1" d="M216.4,67.6a.4.4,0,1,1-.4-.4h0C216.2,67.1,216.4,67.3,216.4,67.6Zm-.1,1.4v3.9h-.6V69Z"/><path id="Trazado_691" data-name="Trazado 691" class="cls-1" d="M220.8,72.4a2.08,2.08,0,0,1-1.6.6,2.05,2.05,0,0,1-.1-4.1c1.1,0,1.8.9,1.8,2.2h-3a1.32,1.32,0,0,0,1.3,1.3,1.62,1.62,0,0,0,1.2-.5Zm-2.9-1.9h2.3a1.1,1.1,0,0,0-1.1-1,1.27,1.27,0,0,0-1.2,1Z"/><path id="Trazado_692" data-name="Trazado 692" class="cls-1" d="M224.3,69.1l-.3.6a.77.77,0,0,0-.6-.2.9.9,0,0,0-.9.9v2.5h-.6V69h.6v.5a1.36,1.36,0,0,1,1.1-.6A1.94,1.94,0,0,1,224.3,69.1Z"/><path id="Trazado_693" data-name="Trazado 693" class="cls-1" d="M226.9,72.8a1.32,1.32,0,0,1-.7.2,1,1,0,0,1-1-1V69.5h-.4v-.6h.4V67.4h.6v1.5h.8v.6h-.8v2.4c0,.2.1.5.4.5a.34.34,0,0,0,.3-.1Z"/><path id="Trazado_694" data-name="Trazado 694" class="cls-1" d="M231.6,71a2,2,0,0,1-2.06,2h0a2.05,2.05,0,1,1,2.1-2Zm-2.1-1.5A1.5,1.5,0,1,0,231,71,1.5,1.5,0,0,0,229.5,69.5Z"/></g></g><g id="Grupo_320" data-name="Grupo 320"><g id="Grupo_318" data-name="Grupo 318"><path id="Trazado_695" data-name="Trazado 695" class="cls-1" d="M161.1,24.4h6.1c.1,2.9-.1,8.1-.1,8.6a58.87,58.87,0,0,0,.1,8.4,11.35,11.35,0,0,0,3.1,7.4,10.7,10.7,0,0,0,7,3h.7a8.89,8.89,0,0,0,3.7-.8,9.35,9.35,0,0,0,3.1-2.1,11,11,0,0,0,2.2-3.4,9.12,9.12,0,0,0,.9-3.7,29.69,29.69,0,0,0,.2-3.4c0-1.4-.1-4.1-.1-5.5V24.3h6.2V57.4H188c0-.6,0-2.9-.1-3.4-.8.5-1.6,1-2.4,1.4a12,12,0,0,1-2.8,1.2,15.9,15.9,0,0,1-3.2.7,12.75,12.75,0,0,1-3.9,0,16.6,16.6,0,0,1-10.1-4.6,12.43,12.43,0,0,1-2.4-3,13.56,13.56,0,0,1-1.8-4.8,30.87,30.87,0,0,1-.5-4.4c0-.8-.1-3.3-.1-4l.1-12.2C161,24.5,161,24.4,161.1,24.4Z"/><path id="Trazado_696" data-name="Trazado 696" class="cls-1" d="M225.2,57.5h6.2V43.8l-.1-4.8a13.69,13.69,0,0,0-1.7-5.5,17.77,17.77,0,0,0-3.1-4.3,19.53,19.53,0,0,0-4.2-3.2,15.66,15.66,0,0,0-5.5-1.7,17.1,17.1,0,0,0-3.2,0,18.88,18.88,0,0,0-2.8.4,14.89,14.89,0,0,0-4.5,1.8,16.58,16.58,0,0,0-3.6,2.8,13,13,0,0,0-2,2.5,15.17,15.17,0,0,0-1.6,3.1,14.49,14.49,0,0,0-1,3.7,16.21,16.21,0,0,0,0,4.4,16,16,0,0,0,1.6,5.5,17.52,17.52,0,0,0,3.2,4.3,23.46,23.46,0,0,0,4.4,3.2,14.06,14.06,0,0,0,5.6,1.6,17.29,17.29,0,0,0,4.6-.2,12.94,12.94,0,0,0,3.7-1.1,11.48,11.48,0,0,0,1.9-1c.8-.5,1.6-1,1.8-1.1S225.2,56.9,225.2,57.5ZM222,48.3a10.69,10.69,0,0,1-3.2,2.2,9.68,9.68,0,0,1-7.7.2,10.36,10.36,0,0,1-3.1-1.8,11.23,11.23,0,0,1-2.2-2.7,9.09,9.09,0,0,1-1.2-3.1,10.4,10.4,0,0,1-.2-3,11.45,11.45,0,0,1,.6-2.7,10.08,10.08,0,0,1,1.2-2.3,14.32,14.32,0,0,1,1.5-1.8,10.47,10.47,0,0,1,6.1-2.7,8.8,8.8,0,0,1,4.8.7,10.49,10.49,0,0,1,3.5,2.5,11.39,11.39,0,0,1,2,3,9.53,9.53,0,0,1,.9,4.1,8.14,8.14,0,0,1-.9,4.2A7.65,7.65,0,0,1,222,48.3Z"/><path id="Trazado_697" data-name="Trazado 697" class="cls-1" d="M147.2,39.9c-3.6-1.3-10-3.7-13.5-5l-.1-.1a12.25,12.25,0,0,1,3.2-2.8,8.91,8.91,0,0,1,4.1-1.3,8.55,8.55,0,0,1,1.6,0,9.83,9.83,0,0,1,5.9,2.4,12.62,12.62,0,0,1,2.4,2.9h6.6a14.73,14.73,0,0,0-4.2-7,18.72,18.72,0,0,0-4.2-2.9,17.16,17.16,0,0,0-11.8-1,18.29,18.29,0,0,0-4.8,2.4q-5.4,3.6-6.9,11.1c4,1.5,8,3.1,12,4.5s8,3,12.1,4.5a6.34,6.34,0,0,1-1,1.3,4.15,4.15,0,0,1-1.4.9,11.07,11.07,0,0,1-2.7,1.2,8.91,8.91,0,0,1-3.4.4,9.53,9.53,0,0,1-5.9-2.5,10.56,10.56,0,0,1-2.6-3.4H126a15.65,15.65,0,0,0,4.4,7.6,17.89,17.89,0,0,0,4.2,2.8,14.71,14.71,0,0,0,5.3,1.5,15.48,15.48,0,0,0,4.3,0,16.22,16.22,0,0,0,3.5-.9,11.1,11.1,0,0,0,2.9-1.5,24.07,24.07,0,0,0,2.5-2,14,14,0,0,0,4.6-9.1C154.2,42.5,150.7,41.2,147.2,39.9Z"/></g><g id="Grupo_319" data-name="Grupo 319"><path id="Trazado_698" data-name="Trazado 698" class="cls-1" d="M128.6,15.7v3a1.6,1.6,0,0,1-3.2,0h0v-3h.4v3a1.2,1.2,0,0,0,2.4,0v-3Z"/><path id="Trazado_699" data-name="Trazado 699" class="cls-1" d="M133.2,15.7v4.7l-3.1-3.7v3.6h-.4V15.6l3.1,3.7V15.7Z"/><path id="Trazado_700" data-name="Trazado 700" class="cls-1" d="M134,20.3l1.9-4.7,1.9,4.7h-.5l-.4-1h-2.1l-.4,1Zm1-1.3h1.8l-.9-2.2Z"/><path id="Trazado_701" data-name="Trazado 701" class="cls-1" d="M141.8,18a2.24,2.24,0,0,1-2.18,2.3h-1V15.7h1A2.25,2.25,0,0,1,141.8,18Zm-.5,0a1.82,1.82,0,0,0-1.73-1.9H139v3.8h.6a1.74,1.74,0,0,0,1.71-1.77S141.3,18,141.3,18Z"/></g></g></g></g></g></g></g></g></svg>