<svg version="1.1" id="Capa_1" xmlns="http://www.w3.org/2000/svg" xmlns:xlink="http://www.w3.org/1999/xlink" x="0px" y="0px"
	 viewBox="0 0 300 230" style="enable-background:new 0 0 300 230;" xml:space="preserve">
<style type="text/css">
	.st0{opacity:0.8;}
	.st1{opacity:0.4;fill:none;stroke:#F2BA01;stroke-width:3;stroke-miterlimit:10;enable-background:new    ;}
	.st2{opacity:0.4;fill:#F2BA01;fill-opacity:0.4;enable-background:new    ;}
	.st3{opacity:0.3;fill:none;stroke:#FFFFFF;stroke-width:3;stroke-miterlimit:10;enable-background:new    ;}
	.st4{opacity:0.4;fill:#FFFFFF;fill-opacity:0.4;stroke:#5CA19B;stroke-miterlimit:10;enable-background:new    ;}
	.st5{opacity:0.5;fill:none;stroke:#F2BA01;stroke-width:4;stroke-linecap:round;stroke-miterlimit:10;enable-background:new    ;}
</style>
<g class="st0">
	<path class="st1" d="M85.8,230l105-93.1c13.2-11.7,33.5-10.5,45.2,2.7l64.1,72.2"/>
	<path class="st2" d="M57,230l-34.7-39.1c-11.7-13.2-10.5-33.5,2.7-45.2L139.6,44.1c13.2-11.7,33.5-10.5,45.2,2.7l101.6,114.5
		c11.7,13.2,10.5,33.5-2.7,45.2L257.2,230"/>
	<path class="st3" d="M75.8,230l-53.5-60.2c-11.7-13.2-10.5-33.5,2.7-45.2L139.6,23c13.2-11.7,33.5-10.5,45.2,2.7l101.6,114.5
		c11.7,13.2,10.5,33.5-2.7,45.2L233.4,230"/>
	<path class="st4" d="M213.1,230l-19.6-22c-11.7-13.2-10.5-33.5,2.7-45.2l50.3-44.7c13.2-11.7,33.5-10.5,45.2,2.7l8.2,9.2"/>
	<path class="st5" d="M301.8,132.1l-35.4,32c-13.2,11.7-33.5,10.5-45.2-2.7l-44.7-50.3c-11.7-13.2-10.5-33.5,2.7-45.2l50.3-44.7
		c13.2-11.7,33.5-10.5,45.2,2.7l26.7,29.5"/>
</g>
</svg>