
<svg version="1.1" id="Capa_1" xmlns="http://www.w3.org/2000/svg" xmlns:xlink="http://www.w3.org/1999/xlink" x="0px" y="0px"
	 viewBox="0 0 520 310" style="enable-background:new 0 0 520 310;" xml:space="preserve">
<style type="text/css">
	.st0{clip-path:url(#SVGID_00000116200123290983756830000007659905718449795203_);}
	.st1{opacity:0.25;}
	.st2{fill:url(#SVGID_00000089547414424068307330000001933297918161086136_);}
	.st3{fill:url(#SVGID_00000147191766456293247360000005910087523670924701_);}
	.st4{fill:url(#SVGID_00000092433469838174741240000015906893036721157764_);}
	.st5{fill:url(#SVGID_00000080195950095473189510000014309827501362533050_);}
	.st6{fill:none;stroke:url(#SVGID_00000150798064427898660000000006601763394943975584_);stroke-width:3;stroke-miterlimit:10;}
	.st7{fill:url(#SVGID_00000106127162050724330050000010807244521680221606_);}
	.st8{fill:#FFFFFF;}
	.st9{fill:url(#SVGID_00000008837773323925644570000004594955647157681053_);}
	.st10{fill:url(#SVGID_00000146491005495918415300000002791635523042930584_);}
	.st11{fill:url(#SVGID_00000065046449298726713510000015965280634520388737_);}
	.st12{fill:none;stroke:#FFFFFF;stroke-width:2;stroke-miterlimit:10;}
</style>
<g>
	<g id="Capa_2_00000031919551071031727290000002148560972509202361_">
		<g id="Index">
			<g>
				<defs>
					<rect id="SVGID_1_" width="520" height="310"/>
				</defs>
				<clipPath id="SVGID_00000041267418163641451180000017550783440009310123_">
					<use xlink:href="#SVGID_1_"  style="overflow:visible;"/>
				</clipPath>
				<g style="clip-path:url(#SVGID_00000041267418163641451180000017550783440009310123_);">
					<g class="st1">
						
							<linearGradient id="SVGID_00000110458796852487514760000014305780975397010852_" gradientUnits="userSpaceOnUse" x1="189.0379" y1="-800.9609" x2="462.2719" y2="-527.7338" gradientTransform="matrix(0.9793 0.2024 0.2024 -0.9793 132.9734 -673.0115)">
							<stop  offset="0" style="stop-color:#FFFFFF"/>
							<stop  offset="1" style="stop-color:#FFFFFF;stop-opacity:0"/>
						</linearGradient>
						<path style="fill:url(#SVGID_00000110458796852487514760000014305780975397010852_);" d="M57.6,0l142.7,208.7
							c30.6,46.5,93.1,59.5,139.6,28.9l180.1-113V0H57.6z"/>
						
							<linearGradient id="SVGID_00000044146873152581413710000006704085053032584845_" gradientUnits="userSpaceOnUse" x1="21.8386" y1="-748.5685" x2="545.4954" y2="-748.5685" gradientTransform="matrix(0.9793 0.2024 0.2024 -0.9793 132.9734 -673.0115)">
							<stop  offset="0" style="stop-color:#FFFFFF;stop-opacity:0"/>
							<stop  offset="1" style="stop-color:#F2BA01"/>
						</linearGradient>
						<path style="fill:url(#SVGID_00000044146873152581413710000006704085053032584845_);" d="M16.1,0L170,234.1
							c36.8,56,112.1,71.6,168.1,34.8L520,149.3V0H16.1z"/>
					</g>
					<g class="st1">
						
							<linearGradient id="SVGID_00000049217764473009210890000012243864758911556013_" gradientUnits="userSpaceOnUse" x1="189.0379" y1="-800.9609" x2="462.2719" y2="-527.7338" gradientTransform="matrix(0.9793 0.2024 0.2024 -0.9793 132.9734 -673.0115)">
							<stop  offset="0" style="stop-color:#FFFFFF"/>
							<stop  offset="1" style="stop-color:#FFFFFF;stop-opacity:0"/>
						</linearGradient>
						<path style="fill:url(#SVGID_00000049217764473009210890000012243864758911556013_);" d="M57.6,0l142.7,208.7
							c30.6,46.5,93.1,59.5,139.6,28.9l180.1-113V0H57.6z"/>
						
							<linearGradient id="SVGID_00000033356504843008679130000011648706988576328581_" gradientUnits="userSpaceOnUse" x1="21.8386" y1="-748.5685" x2="545.4954" y2="-748.5685" gradientTransform="matrix(0.9793 0.2024 0.2024 -0.9793 132.9734 -673.0115)">
							<stop  offset="0" style="stop-color:#FFFFFF;stop-opacity:0"/>
							<stop  offset="1" style="stop-color:#F2BA01"/>
						</linearGradient>
						<path style="fill:url(#SVGID_00000033356504843008679130000011648706988576328581_);" d="M16.1,0L170,234.1
							c36.8,56,112.1,71.6,168.1,34.8L520,149.3V0H16.1z"/>
					</g>
					
						<linearGradient id="SVGID_00000080897085029350760310000016190313899702345659_" gradientUnits="userSpaceOnUse" x1="9025.4854" y1="249.4307" x2="9116.9941" y2="340.9392" gradientTransform="matrix(-1 0 0 -1 9209.9795 332.81)">
						<stop  offset="0" style="stop-color:#FFFFFF;stop-opacity:0"/>
						<stop  offset="1" style="stop-color:#F2BA01"/>
					</linearGradient>
					
						<path style="fill:none;stroke:url(#SVGID_00000080897085029350760310000016190313899702345659_);stroke-width:3;stroke-miterlimit:10;" d="
						M205,54H72.5c-9,0-16.4-7.3-16.4-16.4l0,0c0-9,7.3-16.4,16.4-16.4H205c9,0,16.4,7.3,16.4,16.4l0,0C221.4,46.7,214,54,205,54z"
						/>
					
						<linearGradient id="SVGID_00000063617707262347061810000007283035596895153827_" gradientUnits="userSpaceOnUse" x1="8982.9805" y1="315.42" x2="9162.4805" y2="315.42" gradientTransform="matrix(-1 0 0 -1 9209.9805 332.8199)">
						<stop  offset="0" style="stop-color:#FFFFFF"/>
						<stop  offset="1" style="stop-color:#FFFFFF;stop-opacity:0"/>
					</linearGradient>
					<path style="fill:url(#SVGID_00000063617707262347061810000007283035596895153827_);" d="M206.9,37.5H67.6
						c-11.1,0-20.1-9-20.1-20.1v0c0-11.1,9-20.1,20.1-20.1h139.4c11.1,0,20.1,9,20.1,20.1v0C227,28.5,218,37.5,206.9,37.5z"/>
					<path class="st8" d="M119.3,202.7c3.9,0,3.9-6,0-6S115.5,202.7,119.3,202.7z"/>
					<path class="st8" d="M143.1,202.7c3.9,0,3.9-6,0-6S139.3,202.7,143.1,202.7z"/>
					<path class="st8" d="M172.2,202.7c3.9,0,3.9-6,0-6S168.3,202.7,172.2,202.7z"/>
					<path class="st8" d="M161.6,226.4c3.9,0,3.9-6,0-6S157.8,226.4,161.6,226.4z"/>
					<path class="st8" d="M132.6,226.4c3.9,0,3.9-6,0-6S128.7,226.4,132.6,226.4z"/>
					<path class="st8" d="M193.4,229.1c3.9,0,3.9-6,0-6S189.5,229.1,193.4,229.1z"/>
					<path class="st8" d="M254.1,215.9c3.9,0,3.9-6,0-6S250.3,215.9,254.1,215.9z"/>
					<path class="st8" d="M307,218.5c3.9,0,3.9-6,0-6S303.1,218.5,307,218.5z"/>
					<g>
						
							<linearGradient id="SVGID_00000129207592795525159590000016018969902675508364_" gradientUnits="userSpaceOnUse" x1="217.14" y1="207.7585" x2="296.97" y2="207.7585" gradientTransform="matrix(1 0 0 -1 42.98 332.82)">
							<stop  offset="0" style="stop-color:#FFFFFF"/>
							<stop  offset="1" style="stop-color:#FFFFFF;stop-opacity:0"/>
						</linearGradient>
						<path style="fill:url(#SVGID_00000129207592795525159590000016018969902675508364_);" d="M260.4,85.1h14.7
							c0.3,7-0.1,19.4-0.2,20.6c-0.1,6.7-0.4,13.5,0.2,20.3c0.5,6.8,2.9,13.4,7.3,17.8c4.5,4.4,10.5,7,16.8,7.2h1.8
							c3.1-0.1,6.1-0.8,8.9-2c2.7-1.2,5.3-2.9,7.4-5c2.2-2.4,4.1-5.2,5.4-8.2c1.3-2.8,2-5.8,2.1-8.9c0.3-2.7,0.4-5.4,0.4-8.1
							c0-3.5-0.1-9.8-0.1-13.2V85.1H340v79.7h-14.9c-0.1-1.4,0-7-0.2-8.1c-1.8,1.2-3.7,2.3-5.8,3.4c-2.1,1.2-4.3,2.1-6.6,2.9
							c-2.5,0.8-5.1,1.4-7.7,1.8c-3.1,0.4-6.2,0.4-9.3,0.1c-5.1-0.6-10.1-2-14.8-4.2c-3.4-1.8-6.5-4-9.3-6.7c-2.3-2-4.2-4.5-5.7-7.2
							c-2.2-3.6-3.6-7.5-4.3-11.6c-0.7-3.5-1.1-7-1.1-10.6c0-1.9-0.2-7.8-0.2-9.7l0.1-29.2C260.3,85.3,260.3,85.1,260.4,85.1z"/>
						
							<linearGradient id="SVGID_00000054983491234885377520000007519395239305693611_" gradientUnits="userSpaceOnUse" x1="306.4153" y1="207.7506" x2="386.38" y2="207.7506" gradientTransform="matrix(1 0 0 -1 42.98 332.82)">
							<stop  offset="0" style="stop-color:#FFFFFF"/>
							<stop  offset="1" style="stop-color:#FFFFFF;stop-opacity:0"/>
						</linearGradient>
						<path style="fill:url(#SVGID_00000054983491234885377520000007519395239305693611_);" d="M414.5,164.8h14.8c0-2.3,0-8.1,0-11
							c0-3.6,0-7,0-10.7s0.1-11.1,0.1-11.1l-0.1-11.5c-0.4-4.6-1.8-9.1-4-13.2c-2-3.8-4.5-7.2-7.5-10.2c-3-3.1-6.4-5.6-10.1-7.7
							c-4.1-2.2-8.6-3.6-13.2-4c-2.5-0.2-5.1-0.2-7.6-0.1c-2.2,0.1-4.5,0.4-6.6,0.9c-3.8,0.8-7.4,2.2-10.8,4.2
							c-3.1,1.9-6,4.1-8.5,6.6c-1.8,1.8-3.4,3.8-4.8,5.9c-1.5,2.3-2.9,4.8-3.9,7.4c-1.2,2.9-2,5.9-2.4,8.9
							c-0.5,3.5-0.5,7.1-0.1,10.6c0.4,4.6,1.8,9.1,3.9,13.2c2,3.9,4.6,7.4,7.7,10.4c3.2,3,6.8,5.6,10.7,7.5
							c4.2,2.1,8.8,3.4,13.5,3.8c3.6,0.3,7.3,0.2,10.9-0.4c3.1-0.5,6-1.4,8.9-2.6c1.6-0.7,3.1-1.6,4.5-2.5c1.9-1.2,3.9-2.4,4.4-2.6
							C414.4,156.8,414.4,163.3,414.5,164.8z M406.8,142.4c-2.2,2.2-4.8,4-7.6,5.4c-3,1.5-6.3,2.2-9.7,2.2c-3.1,0-6.1-0.5-8.9-1.6
							c-2.7-1-5.2-2.5-7.3-4.4c-2.1-1.8-3.9-4-5.4-6.4c-1.4-2.3-2.4-4.8-3-7.4c-0.5-2.4-0.7-4.8-0.4-7.3c0.2-2.2,0.8-4.4,1.5-6.5
							c0.7-2,1.7-3.8,2.9-5.5c1.1-1.5,2.3-3,3.7-4.2c3.6-3.5,8.5-5.7,14.7-6.4c3.9-0.6,7.9,0,11.5,1.6c3.2,1.4,6.1,3.4,8.5,5.9
							c2,2.1,3.7,4.6,4.9,7.3c1.4,3.1,2.2,6.4,2.2,9.8c0.2,3.5-0.5,6.9-2,10.1C410.9,137.8,409.1,140.3,406.8,142.4z"/>
						
							<linearGradient id="SVGID_00000046305829670873109030000001670755732555729086_" gradientUnits="userSpaceOnUse" x1="131.75" y1="207.8447" x2="209.31" y2="207.8447" gradientTransform="matrix(1 0 0 -1 42.98 332.82)">
							<stop  offset="0" style="stop-color:#FFFFFF"/>
							<stop  offset="1" style="stop-color:#FFFFFF;stop-opacity:0"/>
						</linearGradient>
						<path style="fill:url(#SVGID_00000046305829670873109030000001670755732555729086_);" d="M227,122.3
							c-8.6-3.2-24.1-9-32.5-12.1l-0.3-0.2c2.1-2.7,4.7-5,7.6-6.8c3-1.8,6.4-2.8,9.8-3.2c1.3-0.1,2.6-0.1,3.9,0
							c5.2,0.3,10.2,2.4,14.1,5.8c2.3,2,4.2,4.4,5.7,7.1h15.9c-1.7-6.5-5.2-12.3-10.1-16.9c-3-2.8-6.4-5.1-10-6.9
							c-4-2-8.2-3.2-12.6-3.6c-6.1-0.6-11.3-0.2-15.6,1.2c-4.1,1.4-8,3.3-11.6,5.7c-8.6,5.8-14.1,14.7-16.6,26.7
							c9.6,3.7,19.2,7.4,28.8,10.9c9.6,3.5,19.3,7.1,29,10.9c-0.6,1.1-1.5,2.2-2.5,3c-1,0.9-2.1,1.6-3.3,2.2c-2,1.2-4.2,2.2-6.4,2.9
							c-2.6,0.9-5.4,1.2-8.1,0.9c-5.2-0.4-10.2-2.5-14.1-6c-2.6-2.3-4.7-5.1-6.2-8.1h-15.7c1.7,6.9,5.3,13.2,10.5,18.1
							c3,2.7,6.4,5,10,6.8c3.9,2,8.2,3.3,12.6,3.7c3.4,0.4,6.8,0.4,10.2-0.1c2.9-0.4,5.8-1.2,8.5-2.2c2.5-1,4.8-2.2,7.1-3.7
							c2.1-1.4,4.1-3.1,6-4.8c3-2.7,5.5-5.9,7.4-9.5c2-3.8,3.3-7.9,3.7-12.2C244,128.7,235.6,125.5,227,122.3z"/>
					</g>
					<g>
						<path class="st12" d="M253.6,85.1h14.7c0.3,7-0.1,19.4-0.2,20.6c-0.1,6.7-0.4,13.5,0.2,20.3c0.5,6.8,2.9,13.4,7.4,17.8
							c4.5,4.4,10.5,7,16.8,7.2h1.8c3.1-0.1,6.1-0.8,8.9-2c2.7-1.2,5.3-2.9,7.4-5c2.2-2.4,4.1-5.2,5.4-8.2c1.3-2.8,2-5.8,2.1-8.9
							c0.3-2.7,0.4-5.4,0.4-8.1c0-3.5-0.1-9.8-0.1-13.2V85.1h14.8v79.7h-14.8c-0.1-1.4,0-7-0.2-8.1c-1.8,1.2-3.7,2.3-5.8,3.4
							c-2.1,1.2-4.3,2.1-6.6,2.9c-2.5,0.8-5.1,1.4-7.8,1.8c-3.1,0.4-6.2,0.4-9.3,0.1c-5.1-0.6-10.1-2-14.7-4.2
							c-3.4-1.8-6.5-4-9.3-6.7c-2.3-2-4.2-4.5-5.7-7.2c-2.2-3.6-3.6-7.5-4.3-11.6c-0.7-3.5-1-7-1.1-10.6c0-1.9-0.2-7.8-0.2-9.7
							l0.1-29.2C253.5,85.3,253.5,85.1,253.6,85.1z"/>
						<path class="st12" d="M407.7,164.8h14.8c0-2.3,0-8.1,0-11c0-3.6,0-7,0-10.7s0.1-11.1,0.1-11.1l-0.1-11.5
							c-0.4-4.6-1.8-9.1-4-13.2c-2-3.8-4.5-7.2-7.5-10.2c-3-3.1-6.4-5.6-10.1-7.7c-4.1-2.2-8.6-3.5-13.2-4c-2.5-0.2-5.1-0.2-7.6-0.1
							c-2.2,0.1-4.4,0.4-6.6,0.9c-3.8,0.8-7.4,2.2-10.8,4.2c-3.1,1.9-6,4.1-8.5,6.6c-1.8,1.8-3.4,3.8-4.8,5.9
							c-1.5,2.3-2.9,4.8-3.9,7.4c-1.2,2.9-2,5.9-2.4,8.9c-0.5,3.5-0.5,7.1-0.1,10.6c0.4,4.6,1.8,9.1,3.9,13.2
							c2,3.9,4.6,7.4,7.7,10.4c3.2,3,6.7,5.6,10.6,7.6c4.2,2.1,8.8,3.4,13.5,3.8c3.6,0.3,7.3,0.2,10.9-0.4c3.1-0.5,6-1.4,8.9-2.6
							c1.6-0.7,3.1-1.6,4.5-2.5c1.9-1.2,3.9-2.4,4.4-2.6C407.6,156.8,407.6,163.3,407.7,164.8z M400.1,142.4c-2.2,2.2-4.8,4-7.6,5.4
							c-3,1.5-6.3,2.2-9.6,2.1c-3.1,0-6.1-0.5-8.9-1.6c-2.7-1-5.2-2.5-7.4-4.4c-2.1-1.8-3.9-4-5.3-6.4c-1.4-2.3-2.4-4.8-3-7.4
							c-0.5-2.4-0.7-4.8-0.4-7.3c0.2-2.2,0.8-4.4,1.5-6.5c0.7-2,1.7-3.8,2.9-5.5c1.1-1.5,2.3-3,3.7-4.2c3.6-3.5,8.5-5.7,14.7-6.4
							c3.9-0.6,7.9,0,11.5,1.6c5.9,2.6,10.7,7.3,13.3,13.2c1.4,3.1,2.2,6.4,2.2,9.8c0.2,3.5-0.5,7-2,10.1
							C404.1,137.8,402.3,140.3,400.1,142.4z"/>
						<path class="st12" d="M220.2,122.3c-8.6-3.2-24.1-9-32.5-12.1l-0.3-0.2c2.1-2.7,4.7-5,7.6-6.8c3-1.8,6.4-2.8,9.8-3.2
							c1.3-0.1,2.6-0.1,3.9,0c5.2,0.3,10.2,2.4,14.1,5.8c2.3,2,4.2,4.4,5.7,7.1h15.9c-1.7-6.5-5.2-12.3-10.1-16.9
							c-3-2.8-6.4-5.1-10-6.9c-4-2-8.2-3.2-12.6-3.6c-6.1-0.6-11.3-0.2-15.6,1.2c-4.1,1.4-8,3.3-11.6,5.7
							c-8.6,5.8-14.1,14.7-16.6,26.7c9.6,3.7,19.2,7.4,28.8,10.9c9.6,3.5,19.3,7.1,29,10.9c-0.6,1.1-1.5,2.2-2.5,3
							c-1,0.8-2.1,1.6-3.3,2.2c-2,1.2-4.2,2.2-6.4,2.9c-2.6,0.9-5.4,1.2-8.1,0.9c-5.2-0.4-10.2-2.5-14.1-6c-2.6-2.3-4.7-5.1-6.2-8.1
							h-15.7c1.7,6.9,5.3,13.2,10.5,18.1c3,2.7,6.4,5,10,6.8c3.9,2,8.2,3.3,12.6,3.7c3.4,0.4,6.8,0.4,10.2-0.1
							c2.9-0.4,5.8-1.2,8.5-2.2c2.5-1,4.9-2.2,7.1-3.7c2.1-1.4,4.1-3.1,6-4.8c3-2.7,5.5-5.9,7.4-9.5c2-3.8,3.3-7.9,3.7-12.2
							C237.2,128.7,228.8,125.5,220.2,122.3z"/>
					</g>
				</g>
			</g>
		</g>
	</g>
</g>
</svg>
